<?xml version="1.0" encoding="UTF-8" standalone="no"?>
<!-- Created with Inkscape (http://www.inkscape.org/) -->

<svg
   xmlns:dc="http://purl.org/dc/elements/1.1/"
   xmlns:cc="http://creativecommons.org/ns#"
   xmlns:rdf="http://www.w3.org/1999/02/22-rdf-syntax-ns#"
   xmlns:svg="http://www.w3.org/2000/svg"
   xmlns="http://www.w3.org/2000/svg"
   xmlns:sodipodi="http://sodipodi.sourceforge.net/DTD/sodipodi-0.dtd"
   xmlns:inkscape="http://www.inkscape.org/namespaces/inkscape"
   width="500"
   height="500"
   id="svg4834"
   version="1.1"
   inkscape:version="0.48.4 r9939"
   sodipodi:docname="geekdos.svg">
  <defs
     id="defs4836" />
  <sodipodi:namedview
     id="base"
     pagecolor="#ffffff"
     bordercolor="#666666"
     borderopacity="1.0"
     inkscape:pageopacity="0.0"
     inkscape:pageshadow="2"
     inkscape:zoom="0.98994949"
     inkscape:cx="367.13947"
     inkscape:cy="367.07085"
     inkscape:document-units="px"
     inkscape:current-layer="layer1"
     showgrid="false"
     inkscape:window-width="1425"
     inkscape:window-height="810"
     inkscape:window-x="83"
     inkscape:window-y="24"
     inkscape:window-maximized="0" />
  <metadata
     id="metadata4839">
    <rdf:RDF>
      <cc:Work
         rdf:about="">
        <dc:format>image/svg+xml</dc:format>
        <dc:type
           rdf:resource="http://purl.org/dc/dcmitype/StillImage" />
        <dc:title />
      </cc:Work>
    </rdf:RDF>
  </metadata>
  <g
     inkscape:label="Calque 1"
     inkscape:groupmode="layer"
     id="layer1"
     transform="translate(0,-552.36215)">
    <path
       style="fill:#ffccaa;fill-opacity:1;stroke:none"
       d="m 130.10569,909.05065 c 10.38194,43.41543 69.21297,60.08947 77.0781,61.03329 7.86515,0.9438 -2.20223,5.66287 -2.83145,8.80892 -0.62922,3.14604 6.92127,17.61786 12.2696,15.41562 5.34826,-2.20223 31.14581,-17.30324 29.88737,-26.74138 -1.25836,-9.43813 -7.55048,-7.86512 -11.32572,-12.26959 -3.77524,-4.40445 -0.94379,-18.56166 -8.49437,-25.16835 -7.55048,-6.6067 -93.12286,-24.22455 -96.58353,-21.07851 z"
       id="path4679"
       inkscape:connector-curvature="0" />
    <path
       style="fill:#ffb380;fill-opacity:1;stroke:none"
       d="m 158.34142,358.83118 c 23.73858,37.37565 51.01269,40.91118 61.11422,42.67895 10.10152,1.76776 17.93021,3.78807 17.17259,9.84898 -0.75761,6.06092 0,13.8896 2.02031,14.89975 2.0203,1.01016 12.69955,-4.80926 10.10153,-10.10152 -6.81854,-13.8896 -8.13752,-6.98872 -13.63706,-13.13198 -4.05331,-4.52775 -2.60678,-21.53971 -8.96882,-24.45288 -4.10741,-1.88077 -67.80277,-19.7413 -67.80277,-19.7413 z"
       id="path3046"
       inkscape:connector-curvature="0"
       transform="translate(0,552.36215)"
       sodipodi:nodetypes="cssssssc" />
    <path
       inkscape:connector-curvature="0"
       id="path4748"
       d="m 368.15769,906.53382 c -10.38195,43.41543 -69.21298,60.08946 -77.07811,61.03328 -7.86515,0.94381 2.20223,5.66288 2.83145,8.80892 0.62922,3.14605 -6.92127,17.61786 -12.2696,15.41563 -5.34825,-2.20223 -31.14581,-17.30325 -29.88737,-26.74139 1.25836,-9.43813 7.55049,-7.86512 11.32572,-12.26958 3.77525,-4.40445 0.94379,-18.56166 8.49437,-25.16836 7.55048,-6.60669 93.12286,-24.22455 96.58354,-21.0785 z"
       style="fill:#ffccaa;fill-opacity:1;stroke:none" />
    <path
       sodipodi:nodetypes="cssssssc"
       inkscape:connector-curvature="0"
       id="path3820"
       d="m 349.66505,908.79422 c -23.73858,37.37565 -57.32614,40.27983 -67.42767,42.0476 -10.10152,1.76776 -17.93021,3.78807 -17.17259,9.84898 0.75761,6.06092 0.0265,13.94454 -2.02031,14.89975 -3.78807,1.76777 -12.39417,-5.96194 -11.23795,-11.74302 1.64151,-8.20749 9.8805,-5.09778 12.99674,-12.7315 3.16046,-7.74203 -0.23241,-15.30766 7.20106,-23.3994 3.05619,-3.32683 77.66072,-18.92241 77.66072,-18.92241 z"
       style="fill:#ffb380;fill-opacity:1;stroke:none" />
    <path
       style="fill:#ff9955;stroke:none"
       d="m 344.20949,361.10403 c -11.49049,6.31345 -25.25382,14.89974 -28.03174,14.14213 -2.77792,-0.75761 2.27284,-10.85914 2.27284,-10.85914 z"
       id="path3824"
       inkscape:connector-curvature="0"
       transform="translate(0,552.36215)"
       sodipodi:nodetypes="cscc" />
    <path
       inkscape:connector-curvature="0"
       id="path3826"
       d="m 165.08344,919.27455 c 11.49049,6.31345 35.35534,18.43528 38.13326,17.67767 2.77792,-0.75761 -2.27284,-10.85914 -2.27284,-10.85914 z"
       style="fill:#ff9955;stroke:none"
       sodipodi:nodetypes="cscc" />
    <path
       style="fill:#28220b;fill-opacity:1;stroke:none"
       d="m 243.14184,976.38826 c -1.22356,2.6695 -19.29834,22.63518 -36.37206,25.91654 -3.89302,0.7785 -7.0075,-1.3348 -7.0075,-1.3348 0,0 41.32179,-24.63736 42.65652,-27.75179 2.50271,1.05668 0.72304,3.17005 0.72304,3.17005 z"
       id="path4703"
       inkscape:connector-curvature="0"
       sodipodi:nodetypes="ccccc" />
    <path
       style="fill:#a0892c;fill-opacity:1;stroke:none"
       d="m 209.40831,973.31442 c -13.0291,8.00525 -21.70774,23.28073 -19.82008,25.79754 4.44586,0.51471 10.6965,2.20224 14.15718,2.51684 3.46067,0.3147 19.32987,-3.34556 39.50989,-26.20757 -5.95898,5.83521 -17.99224,15.71694 -27.60216,19.2223 -6.60669,-0.94381 -11.03714,-11.98987 -11.39646,-15.7842 1.11133,-2.25621 3.04155,-3.69313 5.15163,-5.54491 z"
       id="path4701"
       inkscape:connector-curvature="0"
       sodipodi:nodetypes="ccccccc" />
    <path
       style="fill:#deaa87;stroke:none"
       d="m 207.74387,974.72251 c -8.50899,8.11975 8.50907,29.30899 35.98279,0 -3.28123,3.28127 -12.54224,13.1207 -27.91857,19.79885 -6.91421,0.24698 -12.34651,-14.293 -11.62356,-15.73897 0.72304,-1.44599 2.28028,-3.28127 3.55934,-4.05988 z"
       id="path4723"
       inkscape:connector-curvature="0"
       sodipodi:nodetypes="ccccc" />
    <path
       transform="matrix(0.48938481,0,0,0.58418919,-464.94999,613.60467)"
       d="m 1341.0714,666.39288 c 0,3.45178 -5.0368,6.25 -11.25,6.25 -6.2132,0 -11.25,-2.79822 -11.25,-6.25 0,-3.45178 5.0368,-6.25 11.25,-6.25 6.2132,0 11.25,2.79822 11.25,6.25 z"
       sodipodi:ry="6.25"
       sodipodi:rx="11.25"
       sodipodi:cy="666.39288"
       sodipodi:cx="1329.8214"
       id="path7473-6"
       style="fill:#484537;fill-opacity:1;stroke:none"
       sodipodi:type="arc" />
    <path
       sodipodi:nodetypes="cccc"
       style="fill:#484537;fill-opacity:1;stroke:none"
       d="m 236.02369,1008.2371 -58.98826,-5.5322 -2.045,-2.5446 z"
       id="path7463-0"
       inkscape:connector-curvature="0" />
    <path
       style="fill:#ffb380;stroke:none;stroke-width:1px;stroke-linecap:butt;stroke-linejoin:miter;stroke-opacity:1;fill-opacity:1"
       d="m 219.70818,415.65226 c 7.07107,1.26269 10.10152,-0.75761 10.85914,-3.03046 0.75761,-2.27284 0.50508,4.29315 -2.27284,5.55584 -2.77792,1.26269 -7.32361,-1.76776 -8.5863,-2.52538 z"
       id="path3816"
       inkscape:connector-curvature="0"
       transform="translate(0,552.36215)" />
    <path
       transform="matrix(0.55468277,0,0,0.70654932,-623.97782,591.49988)"
       d="m 1670,396.57144 a 183.57143,68.571426 0 1 1 -367.1428,0 183.57143,68.571426 0 1 1 367.1428,0 z"
       sodipodi:ry="68.571426"
       sodipodi:rx="183.57143"
       sodipodi:cy="396.57144"
       sodipodi:cx="1486.4286"
       id="path7420"
       style="fill:#00ffff;fill-opacity:1;stroke:none;display:inline"
       sodipodi:type="arc" />
    <path
       sodipodi:type="arc"
       style="fill:#00ffff;fill-opacity:1;stroke:none;display:inline"
       id="path7422"
       sodipodi:cx="1486.4286"
       sodipodi:cy="396.57144"
       sodipodi:rx="183.57143"
       sodipodi:ry="68.571426"
       d="m 1670,396.57144 a 183.57143,68.571426 0 1 1 -367.1428,0 183.57143,68.571426 0 1 1 367.1428,0 z"
       transform="matrix(0.54498806,0,0,0.70654932,-514.16135,591.49988)" />
    <path
       inkscape:connector-curvature="0"
       id="path4466"
       d="m 379.72927,857.41242 c -20.02129,37.37312 -90.76322,49.3859 -125.91181,36.03836 -35.14849,-13.34754 117.01347,-41.82229 125.91181,-36.03836 z"
       style="fill:#008080;fill-opacity:1;stroke:none;display:inline" />
    <path
       style="fill:#008080;stroke:none;display:inline"
       d="m 112.41191,847.62423 c -19.576259,39.5977 27.14003,83.64458 136.58989,54.27999 109.44986,32.92393 154.38657,-24.91541 137.47968,-50.27573 50.27572,42.04475 -67.07143,86.64779 -139.42628,62.2329 C 140.44173,941.057 63.248493,882.77275 112.41191,847.62423 z"
       id="path3694"
       inkscape:connector-curvature="0"
       sodipodi:nodetypes="ccccc" />
    <path
       sodipodi:nodetypes="csssc"
       inkscape:connector-curvature="0"
       id="path4484"
       d="m 485.20568,741.18234 c 15.57295,23.28073 -5.66291,44.20193 -11.95495,47.97719 -6.29213,3.77525 -30.83124,15.73022 -51.5952,6.29208 -20.76388,-9.43813 -42.78619,-49.70751 -6.29204,-57.88722 36.49406,-8.17973 62.29171,-8.96624 69.84219,3.61795 z"
       style="fill:#ffccaa;stroke:none;display:inline" />
    <path
       sodipodi:nodetypes="ccccccc"
       inkscape:connector-curvature="0"
       id="path4486"
       d="m 485.20568,741.02504 c -18.56164,-0.62922 -57.63971,1.79547 -57.95428,12.80663 5.46928,5.22723 6.09199,27.33897 14.90091,35.19484 8.80893,2.51683 14.05843,1.57441 30.4692,-1.12541 -16.04484,11.95498 -41.21318,10.69656 -47.81987,9.12354 -1.25845,-24.85376 -7.86514,-45.61766 -6.6067,-51.59514 1.25836,-5.97749 40.26939,-21.39311 67.01074,-4.40446 z"
       style="fill:#ffb380;fill-opacity:1;stroke:none;display:inline" />
    <path
       sodipodi:nodetypes="ccccccc"
       inkscape:connector-curvature="0"
       id="path4488"
       d="m 477.84987,738.17767 c -22.24588,-3.78181 -56.39228,3.78266 -54.72493,8.89836 9.78822,30.03196 6.89625,36.92819 6.89625,42.48967 0,5.56147 22.02346,5.56147 27.58489,4.8941 -10.90043,5.33901 -31.81159,2.6695 -34.48114,0.88983 -2.66945,-1.77967 -8.45339,-48.49606 -4.89406,-50.72065 4.00428,-3.55935 29.8095,-18.24164 59.61899,-6.45131 z"
       style="fill:#ff9955;stroke:none;display:inline" />
    <path
       sodipodi:nodetypes="cscssssc"
       inkscape:connector-curvature="0"
       id="path4490"
       d="m 485.19106,758.19898 c -1.33482,7.56361 -9.34328,16.68442 -19.57643,18.24164 -10.23307,1.55721 -22.02347,-1.11229 -24.69292,-2.44705 -2.66955,-1.33475 -5.78394,-10.23312 -4.00428,-11.34541 1.77967,-1.1123 12.01282,5.33902 15.12722,9.78819 1.14816,1.64026 11.34537,5.11656 15.12722,3.11443 3.78176,-2.00213 13.34755,-8.45345 13.34755,-11.56787 0,-3.11442 2.00209,0 4.67164,-5.78393 z"
       style="fill:#ffb380;fill-opacity:1;stroke:none;display:inline" />
    <path
       style="fill:#ff0000;stroke:none;display:inline"
       d="m 276.58669,663.42818 c 51.61053,0 160.78652,13.08691 205.72323,74.04068 -24.91526,-3.55935 -47.77742,-5.07838 -70.46815,14.05308 -29.36456,-29.36458 -111.22953,-88.98359 -135.25508,-88.09376 z"
       id="path3682"
       inkscape:connector-curvature="0"
       sodipodi:nodetypes="cccc" />
    <path
       style="fill:#b26800;fill-opacity:1;stroke:none"
       d="m 283.85287,112.10142 c 28.78934,8.5863 196.97974,55.05332 123.23861,168.1904 9.09137,46.97209 -127.27922,72.22591 -157.07873,62.62946 -29.7995,-9.59645 -14.33743,-4.14964 -26.26396,-14.14214 -18.68782,-15.65736 -93.72971,-30.14294 -95.9645,-36.87056 -48.487315,-145.96704 60.10409,-159.6041 69.19546,-172.73609 9.09137,-13.13198 80.30712,12.12183 70.20559,-4.04061 -10.10152,-16.162443 75.25637,15.65736 16.66753,-3.03046 z"
       id="path3083"
       inkscape:connector-curvature="0"
       transform="translate(0,552.36215)"
       sodipodi:nodetypes="cccccccc" />
    <path
       inkscape:connector-curvature="0"
       id="path3822"
       d="m 281.98484,964.98395 c -7.07107,1.26269 -10.10152,-0.75761 -10.85914,-3.03046 -0.75761,-2.27284 -0.50508,4.29315 2.27284,5.55584 2.77792,1.26269 7.32361,-1.76776 8.5863,-2.52538 z"
       style="fill:#ffb380;fill-opacity:1;stroke:none" />
    <path
       sodipodi:nodetypes="ccccc"
       inkscape:connector-curvature="0"
       id="path4746"
       d="m 255.12154,973.87142 c 1.22356,2.66951 26.69157,26.56768 46.12477,31.42208 3.89302,0.7786 0.47946,-4.4808 0.47946,-4.4808 0,0 -44.54646,-26.9969 -45.8812,-30.11132 -2.5027,1.05667 -0.72303,3.17004 -0.72303,3.17004 z"
       style="fill:#28220b;fill-opacity:1;stroke:none" />
    <path
       sodipodi:nodetypes="ccccccc"
       inkscape:connector-curvature="0"
       id="path4750"
       d="m 288.85506,970.79759 c 13.0291,8.00525 27.99987,29.65151 26.11221,32.16831 -4.44586,0.5147 -9.91004,0.8652 -13.37072,1.1798 -3.46067,0.3145 -26.40846,-8.37929 -46.58847,-31.2413 5.95897,5.8352 17.99223,15.71693 27.60215,19.2223 6.6067,-0.94381 11.03715,-11.98987 11.39646,-15.7842 -1.11133,-2.25621 -3.04155,-3.69313 -5.15163,-5.54491 z"
       style="fill:#a0892c;fill-opacity:1;stroke:none" />
    <path
       sodipodi:nodetypes="ccccc"
       inkscape:connector-curvature="0"
       id="path4752"
       d="m 290.5195,972.20568 c 8.50899,8.11975 -8.50907,29.30892 -35.98279,0 3.28124,3.28127 12.54224,13.1207 27.91857,19.79884 6.91422,0.24699 12.34651,-14.29299 11.62356,-15.73896 -0.72303,-1.44599 -2.28028,-3.28127 -3.55934,-4.05988 z"
       style="fill:#deaa87;stroke:none" />
    <path
       style="fill:#ffccaa;stroke:none;display:inline"
       d="m 17.184854,743.1812 c -15.5729491,23.28073 5.662906,44.20193 11.954947,47.97719 6.292128,3.77525 30.831243,15.73023 51.595204,6.29209 20.763875,-9.43813 42.786185,-49.70752 6.29204,-57.88723 -36.494062,-8.17972 -62.291708,-8.96624 -69.842191,3.61795 z"
       id="path4452"
       inkscape:connector-curvature="0"
       sodipodi:nodetypes="csssc" />
    <path
       style="fill:#ff0000;stroke:none;display:inline"
       d="M 204.50994,666.09769 C 146.67061,668.76719 65.646283,685.1482 17.595086,742.0977 49.629188,733.64426 61.2464,738.17441 83.492287,748.85243 129.76373,677.66556 184.9336,672.32654 204.50994,666.09769 z"
       id="path3680"
       inkscape:connector-curvature="0"
       sodipodi:nodetypes="cccc" />
    <path
       transform="matrix(0.88089266,0,0,0.88089266,-1001.3787,500.33797)"
       d="M 1495.7143,133 A 77.85714,66.428574 0 1 1 1340,133 a 77.85714,66.428574 0 1 1 155.7143,0 z"
       sodipodi:ry="66.428574"
       sodipodi:rx="77.85714"
       sodipodi:cy="133"
       sodipodi:cx="1417.8572"
       id="path7414"
       style="opacity:0.76489024;fill:#6c6753;fill-opacity:1;stroke:none;display:inline"
       sodipodi:type="arc" />
    <path
       style="fill:#ffb380;fill-opacity:1;stroke:none;display:inline"
       d="m 17.184854,743.0239 c 18.561641,-0.62921 57.639714,1.79548 57.95428,12.80664 -5.469286,5.22722 -6.091989,27.33897 -14.900916,35.19483 -8.808926,2.51683 -14.05843,1.57441 -30.469196,-1.1254 16.044843,11.95497 41.21318,10.69655 47.819875,9.12353 1.258443,-24.85376 7.865138,-45.61766 6.606695,-51.59514 C 82.937237,741.45087 43.9262,726.03525 17.184854,743.0239 z"
       id="path4456"
       inkscape:connector-curvature="0"
       sodipodi:nodetypes="ccccccc" />
    <path
       style="fill:#ff9955;stroke:none;display:inline"
       d="m 24.54066,740.17654 c 22.245887,-3.78182 56.392282,3.78265 54.724928,8.89835 -9.788215,30.03197 -6.896244,36.92819 -6.896244,42.48967 0,5.56147 -22.023462,5.56147 -27.58489,4.8941 10.90043,5.33901 31.811589,2.6695 34.481134,0.88984 2.669457,-1.77968 8.453398,-48.49607 4.894063,-50.72066 -4.004273,-3.55934 -29.809495,-18.24164 -59.618991,-6.4513 z"
       id="path4460"
       inkscape:connector-curvature="0"
       sodipodi:nodetypes="ccccccc" />
    <path
       style="fill:#008080;fill-opacity:1;stroke:none;display:inline"
       d="m 115.52639,854.74292 c 20.02128,37.37311 156.5156,54.41957 191.66418,41.07203 35.1485,-13.34754 -182.76584,-46.85597 -191.66418,-41.07203 z"
       id="path4464"
       inkscape:connector-curvature="0"
       sodipodi:nodetypes="csc" />
    <path
       style="fill:#ffb380;fill-opacity:1;stroke:none;display:inline"
       d="m 17.199477,760.19784 c 1.334816,7.56361 9.343276,16.68443 19.57643,18.24164 10.233065,1.55721 22.023461,-1.11229 24.692918,-2.44705 2.669546,-1.33475 5.783942,-10.23312 4.004274,-11.34541 -1.779667,-1.11229 -12.012821,5.33902 -15.127217,9.7882 -1.148156,1.64025 -11.345369,5.11656 -15.127217,3.11442 -3.781761,-2.00213 -13.34755,-8.45344 -13.34755,-11.56786 0,-3.11443 -2.002093,0 -4.671638,-5.78394 z"
       id="path4458"
       inkscape:connector-curvature="0"
       sodipodi:nodetypes="cscssssc" />
    <path
       style="fill:#b24700;fill-opacity:1;stroke:none;display:inline"
       d="m 283.26051,669.21212 c -6.22888,7.11869 -19.57643,16.46196 -35.14859,16.01704 -15.57207,-0.44492 -27.14004,-8.00853 -45.38165,-12.45769 -107.22525,38.26293 -103.07563,155.94684 -51.92638,165.36282 51.14925,9.41598 183.10705,28.3557 255.0886,-3.70348 1.26324,45.80529 -85.62639,57.29644 -146.65762,60.79964 C 218.87377,898.42225 86.09043,882.62862 85.200552,778.07289 84.840355,709.05363 172.47592,666.09768 207.62442,666.5426 c 28.47468,3.55935 62.28854,8.89837 75.63609,2.66952 z"
       id="path4492"
       inkscape:connector-curvature="0"
       sodipodi:nodetypes="ccczccccc" />
    <path
       style="fill:#7d3a00;fill-opacity:1;stroke:none;display:inline"
       d="m 207.67833,667.09084 c 9.34328,8.89837 29.8095,11.12296 39.59771,12.90262 9.78822,1.77968 26.97505,-4.26395 31.04099,-8.92534 -17.60015,2.96639 -60.40554,-3.08744 -70.6387,-3.97728 z"
       id="path4494"
       inkscape:connector-curvature="0"
       sodipodi:nodetypes="cccc" />
    <path
       style="fill:#b22c00;fill-opacity:1;stroke:none;display:inline"
       d="M 178.70472,671.88162 C 146.87491,678.5792 30.892864,745.10262 93.341909,831.334 98.235972,891.84285 302.4761,911.46559 351.0034,881.47307 332.17397,867.04268 227.68391,865.76437 212.7166,867.00888 163.73401,871.0817 117.22256,850.37832 113.00423,837.92164 64.413215,724.76811 168.24914,676.77572 178.70472,671.88162 z"
       id="path4496"
       inkscape:connector-curvature="0"
       sodipodi:nodetypes="cccscc" />
    <path
       style="fill:#483e37;stroke:none;display:inline"
       d="m 249.0018,906.57586 c 9.78813,7.11869 51.1655,13.12508 81.64245,10.23311 -18.68664,5.78394 -63.45484,11.44683 -81.2516,3.66076 -6.00628,-0.22246 -62.23454,9.0194 -106.28137,-6.55273 46.71638,6.67378 85.4243,10e-6 105.89052,-7.34114 z"
       id="path4468"
       inkscape:connector-curvature="0"
       sodipodi:nodetypes="ccccc" />
    <path
       style="fill:#ffccaa;stroke:none"
       d="m 247.04234,556.64324 c 13.01246,-0.0652 18.56596,2.87482 26.0406,6.78963 25.30479,5.33901 37.31752,27.69614 40.87685,40.3763 10.23307,45.38165 -32.92389,66.7377 -38.70783,67.62753 -5.78394,0.88984 -53.3902,1.77968 -60.06393,-3.11442 -7.11876,-2.66951 -36.03838,-15.12721 -36.48331,-52.50032 -0.44494,-10.45557 6.65082,-39.77167 39.09709,-52.16663 5.84658,-4.98692 21.55862,-7.00091 29.24053,-7.01209 z"
       id="path7346"
       inkscape:connector-curvature="0"
       sodipodi:nodetypes="cccccccc" />
    <path
       style="fill:#deaa87;fill-opacity:1;stroke:none"
       d="m 271.24769,671.4367 c 10.01064,-7.5636 23.13567,-16.46196 26.47258,-17.79672 3.33691,-1.33475 14.45986,-10.67803 11.79031,-12.23523 -2.66946,-1.55722 -12.45767,11.3454 -20.91107,16.01704 -8.45349,4.67164 -24.91552,0.66738 -32.70147,12.45771 -1.1123,3.7818 9.12077,1.5572 15.34965,1.5572 z"
       id="path7362"
       inkscape:connector-curvature="0"
       sodipodi:nodetypes="cscscc" />
    <path
       style="fill:#552200;stroke:none"
       d="m 255.56427,675.21851 c -2.7808,-21.57852 37.59677,-26.90851 46.27153,-28.14106 -11.34537,14.34859 -26.25465,12.45329 -34.81481,17.3518 -8.56017,4.89852 -10.23316,7.34114 -11.45672,10.78926 z"
       id="path7350"
       inkscape:connector-curvature="0"
       sodipodi:nodetypes="cczc" />
    <path
       sodipodi:nodetypes="cccc"
       inkscape:connector-curvature="0"
       id="path7354"
       d="m 234.62149,674.88482 c 2.7808,-21.57852 -35.81709,-24.68392 -44.49186,-25.91647 20.24371,16.2395 31.36674,12.12401 39.48645,18.57533 3.02314,2.4019 3.78185,3.89302 5.00541,7.34114 z"
       style="fill:#552200;stroke:none" />
    <path
       style="fill:#784421;stroke:none"
       d="m 209.7228,567.94648 c 7.07858,-0.78651 -12.89874,26.58408 -6.76394,32.24696 6.1348,5.66288 32.0896,9.91005 45.46032,10.06735 13.37071,0.15731 43.10084,-5.66288 44.83118,-12.58418 1.73034,-6.9213 -19.03195,-31.67333 -10.06737,-30.83125 46.4041,6.2921 42.31429,70.94332 18.24707,82.58369 -16.83139,8.49433 -33.88292,7.39321 -41.74797,14.47181 -12.2696,16.51674 12.01785,39.48287 12.48974,56.47152 0.4719,16.98864 -42.37728,48.13448 -20.66953,80.85336 -26.42678,-22.02232 -32.81325,-76.60621 -25.10544,-95.95438 3.93257,-11.48307 12.83593,-35.70762 4.34157,-41.2132 -8.49427,-5.50558 -25.426,-3.83098 -38.31883,-13.21339 -23.43809,-19.82008 -27.21333,-75.19048 17.3032,-82.89829 z"
       id="path7348"
       inkscape:connector-curvature="0"
       sodipodi:nodetypes="ccccccccccccc" />
    <path
       sodipodi:nodetypes="cscscc"
       inkscape:connector-curvature="0"
       id="path7364"
       d="m 224.11649,670.99178 c -10.01064,-7.5636 -23.80304,-15.12721 -27.13995,-16.46196 -3.33691,-1.33476 -13.79249,-12.01279 -11.12294,-13.57 2.66946,-1.55721 13.7924,8.23099 22.2458,12.90262 8.45349,4.67164 23.58079,3.78181 31.36674,15.57213 1.1123,3.78181 -9.12077,1.77967 -15.34965,1.55721 z"
       style="fill:#deaa87;fill-opacity:1;stroke:none" />
    <path
       style="fill:#552200;fill-opacity:1;stroke:none"
       d="m 207.52056,570.62062 c -5.03359,3.77525 -22.9661,20.13469 -20.13465,41.21319 2.83146,21.07851 30.83125,40.58399 42.15697,44.04464 11.01125,4.08986 20.13474,18.24705 13.52805,54.74119 -13.21339,34.29189 -4.0899,65.43773 -1.88767,74.87587 -13.52796,-24.85376 -17.61785,-41.5278 -16.67398,-63.23551 3.14602,-19.19087 14.47175,-51.59514 8.80893,-57.57263 -5.66291,-5.97749 -57.88733,-3.14604 -59.77491,-54.11197 1.25844,-25.79758 24.85377,-40.26938 33.97726,-39.95478 z"
       id="path7356"
       inkscape:connector-curvature="0"
       sodipodi:nodetypes="ccccccccc" />
    <path
       style="fill:#552200;fill-opacity:1;stroke:none"
       d="m 284.91333,569.67681 c 5.03368,9.12353 18.87629,17.61785 19.19086,26.42678 0.31457,8.80893 -27.37057,23.28073 -48.13453,20.76389 -20.76387,-2.51683 -28.31436,-5.34827 -32.71882,-8.17971 28.31445,5.97748 68.8984,-0.3146 72.35899,-11.01116 3.46068,-10.69655 -11.01116,-20.13469 -10.6965,-27.9998 z"
       id="path7358"
       inkscape:connector-curvature="0"
       sodipodi:nodetypes="cccccc" />
    <path
       style="fill:#deaa87;fill-opacity:1;stroke:none"
       d="m 277.92142,571.1077 c 2.44703,11.79033 10.90052,19.79885 1.77966,23.80312 -9.12076,4.00425 -25.13785,14.01491 -56.28208,9.34327 -9.12076,-2.00213 -19.13149,-8.23098 -16.90688,-13.57 2.2246,-5.33902 7.34109,-18.68655 6.89624,-20.24377 -4.89415,8.00853 -11.12294,20.02131 -10.90052,24.91541 0.22243,4.8941 16.23952,12.45771 32.70147,13.12508 16.46195,0.66738 39.15286,0 56.94954,-10.23311 1.77966,-4.22673 -13.34755,-22.91328 -14.23743,-27.14 z"
       id="path7360"
       inkscape:connector-curvature="0"
       sodipodi:nodetypes="ccccccccc" />
    <path
       transform="matrix(0.64319146,0,0,0.74351353,-704.75253,548.48021)"
       d="m 1341.0714,666.39288 c 0,3.45178 -5.0368,6.25 -11.25,6.25 -6.2132,0 -11.25,-2.79822 -11.25,-6.25 0,-3.45178 5.0368,-6.25 11.25,-6.25 6.2132,0 11.25,2.79822 11.25,6.25 z"
       sodipodi:ry="6.25"
       sodipodi:rx="11.25"
       sodipodi:cy="666.39288"
       sodipodi:cx="1329.8214"
       id="path7467-5"
       style="fill:#484537;fill-opacity:1;stroke:none"
       sodipodi:type="arc" />
    <path
       sodipodi:type="arc"
       style="fill:#484537;fill-opacity:1;stroke:none"
       id="path7469-4"
       sodipodi:cx="1329.8214"
       sodipodi:cy="666.39288"
       sodipodi:rx="11.25"
       sodipodi:ry="6.25"
       d="m 1341.0714,666.39288 c 0,3.45178 -5.0368,6.25 -11.25,6.25 -6.2132,0 -11.25,-2.79822 -11.25,-6.25 0,-3.45178 5.0368,-6.25 11.25,-6.25 6.2132,0 11.25,2.79822 11.25,6.25 z"
       transform="matrix(0.48938481,0,0,0.6018919,-326.83861,605.68018)" />
    <path
       transform="matrix(0.53133208,0,0,0.74351353,-362.32908,548.39169)"
       d="m 1341.0714,666.39288 c 0,3.45178 -5.0368,6.25 -11.25,6.25 -6.2132,0 -11.25,-2.79822 -11.25,-6.25 0,-3.45178 5.0368,-6.25 11.25,-6.25 6.2132,0 11.25,2.79822 11.25,6.25 z"
       sodipodi:ry="6.25"
       sodipodi:rx="11.25"
       sodipodi:cy="666.39288"
       sodipodi:cx="1329.8214"
       id="path7471-5"
       style="fill:#484537;fill-opacity:1;stroke:none"
       sodipodi:type="arc" />
    <path
       sodipodi:type="arc"
       style="fill:#484537;fill-opacity:1;stroke:none"
       id="path7475-8"
       sodipodi:cx="1329.8214"
       sodipodi:cy="666.39288"
       sodipodi:rx="11.25"
       sodipodi:ry="6.25"
       d="m 1341.0714,666.39288 c 0,3.45178 -5.0368,6.25 -11.25,6.25 -6.2132,0 -11.25,-2.79822 -11.25,-6.25 0,-3.45178 5.0368,-6.25 11.25,-6.25 6.2132,0 11.25,2.79822 11.25,6.25 z"
       transform="matrix(0.43345512,0,0,0.53108109,-307.51791,642.82172)" />
    <path
       inkscape:connector-curvature="0"
       id="path7465-3"
       d="m 251.59664,1007.2413 23.41888,-11.50674 0.26823,-2.30336 z"
       style="fill:#484537;fill-opacity:1;stroke:none"
       sodipodi:nodetypes="cccc" />
    <path
       sodipodi:nodetypes="cccc"
       inkscape:connector-curvature="0"
       id="path7455-9"
       d="m 246.73773,1010.6341 -94.88888,34.5898 5.45026,-4.6941 z"
       style="fill:#484537;stroke:none" />
    <path
       sodipodi:nodetypes="cccc"
       inkscape:connector-curvature="0"
       id="path7439-6"
       d="m 136.6087,1039.2167 110.74081,-28.7667 -88.97025,29.9174 z"
       style="fill:#6c6753;fill-opacity:1;stroke:none" />
    <path
       sodipodi:nodetypes="cccc"
       style="fill:#6c6753;fill-opacity:1;stroke:none"
       d="m 358.09031,1039.2167 -110.7408,-28.7667 89.28481,30.2715 z"
       id="path7441-4"
       inkscape:connector-curvature="0" />
    <path
       sodipodi:nodetypes="cccc"
       inkscape:connector-curvature="0"
       id="path7445-7"
       d="m 174.04664,1000.0496 14.15718,-1.32762 59.14569,11.28542 z"
       style="fill:#6c6753;fill-opacity:1;stroke:none" />
    <path
       sodipodi:nodetypes="cccc"
       inkscape:connector-curvature="0"
       id="path7447-9"
       d="m 247.34951,1010.0074 74.54369,-7.8777 16.42239,2.8767 z"
       style="fill:#6c6753;fill-opacity:1;stroke:none" />
    <path
       sodipodi:nodetypes="cccc"
       inkscape:connector-curvature="0"
       id="path7449-9"
       d="m 265.5965,993.6324 9.7528,-0.22128 -27.99979,16.59628 z"
       style="fill:#6c6753;fill-opacity:1;stroke:none" />
    <rect
       y="919.23383"
       x="176.12332"
       height="12.584181"
       width="142.83044"
       id="rect7428-8"
       style="fill:#1c241c;fill-opacity:1;stroke:none" />
    <rect
       y="805.03247"
       x="185.18387"
       height="63.550117"
       width="125.84181"
       id="rect7430-2"
       style="opacity:0.76489024;fill:#3e4837;fill-opacity:1;stroke:none" />
    <path
       sodipodi:nodetypes="cscc"
       inkscape:connector-curvature="0"
       id="path7453-2"
       d="m 137.21881,1039.1654 c -0.0954,4.3742 4.88613,6.6506 8.12897,6.7793 8.08676,0.3205 12.05642,-3.641 12.32034,-5.635 -0.62596,-0.038 -20.44931,-1.1443 -20.44931,-1.1443 z"
       style="fill:#24221c;fill-opacity:1;stroke:none" />
    <path
       style="fill:#484537;stroke:none"
       d="m 252.60095,1012.2385 87.88896,31.7683 -3.72002,-3.477 z"
       id="path7457-2"
       inkscape:connector-curvature="0"
       sodipodi:nodetypes="cccc" />
    <path
       style="fill:#24221c;fill-opacity:1;stroke:none"
       d="m 357.44066,1039.276 c 0.0954,4.3743 -4.88614,6.6507 -8.12897,6.7793 -8.08677,0.3206 -12.05643,-3.641 -12.32034,-5.6349 0.62596,-0.038 20.44931,-1.1444 20.44931,-1.1444 z"
       id="path7459-0"
       inkscape:connector-curvature="0"
       sodipodi:nodetypes="cscc" />
    <path
       inkscape:connector-curvature="0"
       id="path7461-1"
       d="m 247.34951,1009.6754 89.66227,-1.6596 0.9438,-3.2086 z"
       style="fill:#484537;fill-opacity:1;stroke:none" />
    <path
       sodipodi:nodetypes="cccccc"
       inkscape:connector-curvature="0"
       id="path7477-5"
       d="m 233.04646,1007.4363 4.44903,5.9458 19.13149,-0.078 6.11771,-4.6158 -9.12094,-4.0683 z"
       style="fill:#3e4837;fill-opacity:1;stroke:none" />
    <path
       sodipodi:nodetypes="cccccc"
       inkscape:connector-curvature="0"
       id="path7479-7"
       d="m 239.72018,1008.5096 c -0.22242,1.987 4.69191,3.4559 7.62933,3.5423 2.93742,0.086 8.38777,-1.7281 8.05408,-2.5921 -5.38453,-31.79437 -8.05408,-71.01912 -2.55836,-77.32613 -5.49572,0.0555 -8.48529,-0.081 -10.34433,0.0864 4.84861,6.22059 1.66841,45.44534 -2.78072,76.28943 z"
       style="fill:#1f241c;fill-opacity:1;stroke:none" />
    <path
       sodipodi:nodetypes="ccccc"
       inkscape:connector-curvature="0"
       id="path7481-8"
       d="m 185.49825,805.03245 c 29.57279,6.92129 91.54994,8.17973 124.58342,0.62922 8.1797,16.67404 8.1797,48.44909 1.25843,62.60629 -43.41549,15.2897 -81.79723,15.2897 -126.78564,-0.31461 -6.92126,-12.89877 -6.32886,-50.96593 0.94379,-62.9209 z"
       style="fill:#1f241c;stroke:#000000;stroke-width:0.88089263px;stroke-linecap:butt;stroke-linejoin:miter;stroke-opacity:1" />
    <path
       sodipodi:nodetypes="ccccc"
       inkscape:connector-curvature="0"
       id="path4468-5"
       d="m 248.90296,906.26349 c 9.78812,7.1187 51.16551,13.12509 81.64246,10.23312 -18.68664,5.78393 -63.45484,11.44682 -81.25161,3.66075 -6.00627,-0.22246 -62.23453,9.01941 -106.28137,-6.55273 46.71638,6.67378 85.4243,2e-5 105.89052,-7.34114 z"
       style="fill:#483e37;stroke:none;display:inline" />
    <rect
       y="839.21545"
       x="242.396"
       height="117.62634"
       width="10.788404"
       id="rect7435-1"
       style="fill:#dee3db;fill-opacity:1;stroke:#f8fafa;stroke-width:0.78904271;stroke-opacity:1" />
  </g>
</svg>
