<?xml version="1.0" encoding="UTF-8" standalone="no"?>
<!-- Created with Inkscape (http://www.inkscape.org/) -->

<svg
   xmlns:dc="http://purl.org/dc/elements/1.1/"
   xmlns:cc="http://creativecommons.org/ns#"
   xmlns:rdf="http://www.w3.org/1999/02/22-rdf-syntax-ns#"
   xmlns:svg="http://www.w3.org/2000/svg"
   xmlns="http://www.w3.org/2000/svg"
   xmlns:sodipodi="http://sodipodi.sourceforge.net/DTD/sodipodi-0.dtd"
   xmlns:inkscape="http://www.inkscape.org/namespaces/inkscape"
   width="500"
   height="500"
   id="svg4834"
   version="1.1"
   inkscape:version="0.48.4 r9939"
   sodipodi:docname="Nouveau document 8">
  <defs
     id="defs4836" />
  <sodipodi:namedview
     id="base"
     pagecolor="#ffffff"
     bordercolor="#666666"
     borderopacity="1.0"
     inkscape:pageopacity="0.0"
     inkscape:pageshadow="2"
     inkscape:zoom="0.98994949"
     inkscape:cx="170.23621"
     inkscape:cy="277.56339"
     inkscape:document-units="px"
     inkscape:current-layer="layer1"
     showgrid="false"
     inkscape:window-width="1600"
     inkscape:window-height="876"
     inkscape:window-x="0"
     inkscape:window-y="24"
     inkscape:window-maximized="1" />
  <metadata
     id="metadata4839">
    <rdf:RDF>
      <cc:Work
         rdf:about="">
        <dc:format>image/svg+xml</dc:format>
        <dc:type
           rdf:resource="http://purl.org/dc/dcmitype/StillImage" />
        <dc:title></dc:title>
      </cc:Work>
    </rdf:RDF>
  </metadata>
  <g
     inkscape:label="Calque 1"
     inkscape:groupmode="layer"
     id="layer1"
     transform="translate(0,-552.36215)">
    <path
       style="fill:#28220b;fill-opacity:1;stroke:none"
       d="m 243.14184,976.38826 c -1.22356,2.6695 -19.29834,22.63518 -36.37206,25.91654 -3.89302,0.7785 -7.0075,-1.3348 -7.0075,-1.3348 0,0 41.32179,-24.63736 42.65652,-27.75179 2.50271,1.05668 0.72304,3.17005 0.72304,3.17005 z"
       id="path4703"
       inkscape:connector-curvature="0"
       sodipodi:nodetypes="ccccc" />
    <path
       style="fill:#ffccaa;fill-opacity:1;stroke:none"
       d="m 130.10569,909.05065 c 10.38194,43.41543 69.21297,60.08947 77.0781,61.03329 7.86515,0.9438 -2.20223,5.66287 -2.83145,8.80892 -0.62922,3.14604 6.92127,17.61786 12.2696,15.41562 5.34826,-2.20223 31.14581,-17.30324 29.88737,-26.74138 -1.25836,-9.43813 -7.55048,-7.86512 -11.32572,-12.26959 -3.77524,-4.40445 -0.94379,-18.56166 -8.49437,-25.16835 -7.55048,-6.6067 -93.12286,-24.22455 -96.58353,-21.07851 z"
       id="path4679"
       inkscape:connector-curvature="0" />
    <path
       style="fill:#a0892c;fill-opacity:1;stroke:none"
       d="m 209.40831,973.31442 c -13.0291,8.00525 -21.70774,23.28073 -19.82008,25.79754 4.44586,0.51471 10.6965,2.20224 14.15718,2.51684 3.46067,0.3147 19.32987,-3.34556 39.50989,-26.20757 -5.95898,5.83521 -17.99224,15.71694 -27.60216,19.2223 -6.60669,-0.94381 -11.03714,-11.98987 -11.39646,-15.7842 1.11133,-2.25621 3.04155,-3.69313 5.15163,-5.54491 z"
       id="path4701"
       inkscape:connector-curvature="0"
       sodipodi:nodetypes="ccccccc" />
    <path
       style="fill:#deaa87;stroke:none"
       d="m 207.74387,974.72251 c -8.50899,8.11975 8.50907,29.30899 35.98279,0 -3.28123,3.28127 -12.54224,13.1207 -27.91857,19.79885 -6.91421,0.24698 -12.34651,-14.293 -11.62356,-15.73897 0.72304,-1.44599 2.28028,-3.28127 3.55934,-4.05988 z"
       id="path4723"
       inkscape:connector-curvature="0"
       sodipodi:nodetypes="ccccc" />
    <path
       sodipodi:nodetypes="ccccc"
       inkscape:connector-curvature="0"
       id="path4746"
       d="m 255.12154,973.87142 c 1.22356,2.66951 26.69157,26.56768 46.12477,31.42208 3.89302,0.7786 0.47946,-4.4808 0.47946,-4.4808 0,0 -44.54646,-26.9969 -45.8812,-30.11132 -2.5027,1.05667 -0.72303,3.17004 -0.72303,3.17004 z"
       style="fill:#28220b;fill-opacity:1;stroke:none" />
    <path
       inkscape:connector-curvature="0"
       id="path4748"
       d="m 368.15769,906.53382 c -10.38195,43.41543 -69.21298,60.08946 -77.07811,61.03328 -7.86515,0.94381 2.20223,5.66288 2.83145,8.80892 0.62922,3.14605 -6.92127,17.61786 -12.2696,15.41563 -5.34825,-2.20223 -31.14581,-17.30325 -29.88737,-26.74139 1.25836,-9.43813 7.55049,-7.86512 11.32572,-12.26958 3.77525,-4.40445 0.94379,-18.56166 8.49437,-25.16836 7.55048,-6.60669 93.12286,-24.22455 96.58354,-21.0785 z"
       style="fill:#ffccaa;fill-opacity:1;stroke:none" />
    <path
       sodipodi:nodetypes="ccccccc"
       inkscape:connector-curvature="0"
       id="path4750"
       d="m 288.85506,970.79759 c 13.0291,8.00525 27.99987,29.65151 26.11221,32.16831 -4.44586,0.5147 -9.91004,0.8652 -13.37072,1.1798 -3.46067,0.3145 -26.40846,-8.37929 -46.58847,-31.2413 5.95897,5.8352 17.99223,15.71693 27.60215,19.2223 6.6067,-0.94381 11.03715,-11.98987 11.39646,-15.7842 -1.11133,-2.25621 -3.04155,-3.69313 -5.15163,-5.54491 z"
       style="fill:#a0892c;fill-opacity:1;stroke:none" />
    <path
       sodipodi:nodetypes="ccccc"
       inkscape:connector-curvature="0"
       id="path4752"
       d="m 290.5195,972.20568 c 8.50899,8.11975 -8.50907,29.30892 -35.98279,0 3.28124,3.28127 12.54224,13.1207 27.91857,19.79884 6.91422,0.24699 12.34651,-14.29299 11.62356,-15.73896 -0.72303,-1.44599 -2.28028,-3.28127 -3.55934,-4.05988 z"
       style="fill:#deaa87;stroke:none" />
    <g
       id="g4517"
       transform="matrix(0.88089266,0,0,0.88089266,-1017.2348,500.33797)">
      <path
         style="fill:#ffccaa;stroke:none;display:inline"
         d="m 1705.5886,557.77162 c 17.6786,26.42857 -6.4286,50.17857 -13.5714,54.46429 -7.1429,4.28571 -35,17.85714 -58.5715,7.14285 -23.5714,-10.71428 -48.5714,-56.42857 -7.1428,-65.71428 41.4285,-9.28572 70.7143,-10.17858 79.2857,4.10714 z"
         id="path4484"
         inkscape:connector-curvature="0"
         sodipodi:nodetypes="csssc"
         transform="translate(0,-284.36218)" />
      <path
         style="fill:#ffb380;fill-opacity:1;stroke:none;display:inline"
         d="m 1705.5886,557.59305 c -21.0714,-0.71429 -65.4333,2.03825 -65.7904,14.53825 6.2088,5.93401 6.9157,31.03553 16.9157,39.9536 10,2.85714 15.9593,1.78729 34.589,-1.27757 -18.2143,13.57143 -46.7857,12.14286 -54.2857,10.35715 -1.4286,-28.21429 -8.9286,-51.78572 -7.5,-58.57143 1.4285,-6.78572 45.7143,-24.28572 76.0714,-5 z"
         id="path4486"
         inkscape:connector-curvature="0"
         sodipodi:nodetypes="ccccccc"
         transform="translate(0,-284.36218)" />
      <path
         style="fill:#ff9955;stroke:none;display:inline"
         d="m 1697.2382,554.36069 c -25.2538,-4.29316 -64.0172,4.29412 -62.1244,10.10152 11.1117,34.09265 7.8287,41.92133 7.8287,48.23479 0,6.31345 25.0013,6.31345 31.3147,5.55584 -12.3743,6.06091 -36.1129,3.03045 -39.1434,1.01015 -3.0304,-2.02031 -9.5964,-55.05332 -5.5558,-57.5787 4.5457,-4.04061 33.8401,-20.70813 67.6802,-7.3236 z"
         id="path4488"
         inkscape:connector-curvature="0"
         sodipodi:nodetypes="ccccccc"
         transform="translate(0,-284.36218)" />
      <path
         style="fill:#ffb380;fill-opacity:1;stroke:none;display:inline"
         d="m 1705.572,577.08912 c -1.5153,8.5863 -10.6066,18.94036 -22.2234,20.70813 -11.6167,1.76776 -25.0013,-1.26269 -28.0317,-2.77792 -3.0305,-1.51523 -6.566,-11.61676 -4.5457,-12.87945 2.0203,-1.26269 13.6371,6.06092 17.1726,11.11168 1.3034,1.86204 12.8794,5.80838 17.1726,3.53553 4.2931,-2.27284 15.1523,-9.59645 15.1523,-13.13198 0,-3.53553 2.2728,0 5.3033,-6.56599 z"
         id="path4490"
         inkscape:connector-curvature="0"
         sodipodi:nodetypes="cscssssc"
         transform="translate(0,-284.36218)" />
      <path
         sodipodi:nodetypes="csssc"
         inkscape:connector-curvature="0"
         id="path4452"
         d="m 1174.2857,275.67857 c -17.6786,26.42857 6.4286,50.17857 13.5714,54.46429 7.1429,4.28571 35,17.85714 58.5715,7.14285 23.5714,-10.71428 48.5714,-56.42857 7.1428,-65.71428 -41.4285,-9.28572 -70.7143,-10.17858 -79.2857,4.10714 z"
         style="fill:#ffccaa;stroke:none;display:inline" />
      <path
         sodipodi:nodetypes="cccc"
         inkscape:connector-curvature="0"
         id="path3680"
         d="m 1386.9394,188.17244 c -65.6599,3.03045 -157.6397,21.62637 -212.188,86.27613 36.3655,-9.59645 49.5535,-4.45377 74.8073,7.66805 52.5279,-80.8122 115.1574,-86.87311 137.3807,-93.94418 z"
         style="fill:#ff0000;stroke:none;display:inline" />
      <path
         sodipodi:nodetypes="cccc"
         inkscape:connector-curvature="0"
         id="path3682"
         d="m 1468.7618,185.14198 c 58.5889,0 182.5268,14.85642 233.5395,84.05187 -28.2841,-4.04061 -54.2375,-5.76504 -79.9963,15.95323 -33.335,-33.33503 -126.2691,-101.01525 -153.5432,-100.0051 z"
         style="fill:#ff0000;stroke:none;display:inline" />
      <path
         sodipodi:type="arc"
         style="fill:#00ffff;fill-opacity:1;stroke:none;display:inline"
         id="path7420"
         sodipodi:cx="1486.4286"
         sodipodi:cy="396.57144"
         sodipodi:rx="183.57143"
         sodipodi:ry="68.571426"
         d="m 1670,396.57144 c 0,37.87095 -82.1877,68.57143 -183.5714,68.57143 -101.3837,0 -183.5714,-30.70048 -183.5714,-68.57143 0,-37.87095 82.1877,-68.57142 183.5714,-68.57142 101.3837,0 183.5714,30.70047 183.5714,68.57142 z"
         transform="matrix(0.62968259,0,0,0.80208333,446.43008,103.4881)" />
      <path
         transform="matrix(0.61867704,0,0,0.80208333,571.09506,103.4881)"
         d="m 1670,396.57144 c 0,37.87095 -82.1877,68.57143 -183.5714,68.57143 -101.3837,0 -183.5714,-30.70048 -183.5714,-68.57143 0,-37.87095 82.1877,-68.57142 183.5714,-68.57142 101.3837,0 183.5714,30.70047 183.5714,68.57142 z"
         sodipodi:ry="68.571426"
         sodipodi:rx="183.57143"
         sodipodi:cy="396.57144"
         sodipodi:cx="1486.4286"
         id="path7422"
         style="fill:#00ffff;fill-opacity:1;stroke:none;display:inline"
         sodipodi:type="arc" />
      <path
         sodipodi:type="arc"
         style="opacity:0.76489024;fill:#6c6753;fill-opacity:1;stroke:none;display:inline"
         id="path7414"
         sodipodi:cx="1417.8572"
         sodipodi:cy="133"
         sodipodi:rx="77.85714"
         sodipodi:ry="66.428574"
         d="m 1495.7143,133 c 0,36.68749 -34.8578,66.42857 -77.8571,66.42857 C 1374.8579,199.42857 1340,169.68749 1340,133 c 0,-36.687488 34.8579,-66.428574 77.8572,-66.428574 42.9993,0 77.8571,29.741086 77.8571,66.428574 z"
         transform="translate(18,0)" />
      <path
         sodipodi:nodetypes="ccccccc"
         inkscape:connector-curvature="0"
         id="path4456"
         d="m 1174.2857,275.5 c 21.0714,-0.71429 65.4333,2.03825 65.7904,14.53825 -6.2088,5.93401 -6.9157,31.03553 -16.9157,39.9536 -10,2.85714 -15.9593,1.78729 -34.589,-1.27757 18.2143,13.57143 46.7857,12.14286 54.2857,10.35715 1.4286,-28.21429 8.9286,-51.78572 7.5,-58.57143 -1.4285,-6.78572 -45.7143,-24.28572 -76.0714,-5 z"
         style="fill:#ffb380;fill-opacity:1;stroke:none;display:inline" />
      <path
         sodipodi:nodetypes="ccccccc"
         inkscape:connector-curvature="0"
         id="path4460"
         d="m 1182.6361,272.26764 c 25.2538,-4.29316 64.0172,4.29412 62.1244,10.10152 -11.1117,34.09265 -7.8287,41.92133 -7.8287,48.23479 0,6.31345 -25.0013,6.31345 -31.3147,5.55584 12.3743,6.06091 36.1129,3.03045 39.1434,1.01015 3.0304,-2.02031 9.5964,-55.05332 5.5558,-57.5787 -4.5457,-4.04061 -33.8401,-20.70813 -67.6802,-7.3236 z"
         style="fill:#ff9955;stroke:none;display:inline" />
      <path
         sodipodi:nodetypes="csc"
         inkscape:connector-curvature="0"
         id="path4464"
         d="m 1285.9242,402.32478 c 22.7284,42.42641 177.6784,61.77776 217.5795,46.62547 39.901,-15.15229 -207.478,-53.19146 -217.5795,-46.62547 z"
         style="fill:#008080;fill-opacity:1;stroke:none;display:inline" />
      <path
         style="fill:#008080;fill-opacity:1;stroke:none;display:inline"
         d="m 1585.8505,689.71742 c -22.7284,42.42641 -103.0355,56.06347 -142.9366,40.91118 -39.901,-15.15229 132.8351,-47.47717 142.9366,-40.91118 z"
         id="path4466"
         inkscape:connector-curvature="0"
         transform="translate(0,-284.36218)" />
      <path
         sodipodi:type="arc"
         style="fill:#00ff00;fill-opacity:1;stroke:none;display:inline"
         id="path7416"
         sodipodi:cx="1438.5714"
         sodipodi:cy="315.85715"
         sodipodi:rx="198.57143"
         sodipodi:ry="132.14285"
         d="M 1637.1428,315.85715 C 1637.1428,388.83763 1548.2394,448 1438.5714,448 1328.9034,448 1240,388.83763 1240,315.85715 c 0,-72.98049 88.9034,-132.14286 198.5714,-132.14286 109.668,0 198.5714,59.16237 198.5714,132.14286 z" />
      <path
         sodipodi:nodetypes="cscssssc"
         inkscape:connector-curvature="0"
         id="path4458"
         d="m 1174.3023,294.99607 c 1.5153,8.5863 10.6066,18.94036 22.2234,20.70813 11.6167,1.76776 25.0013,-1.26269 28.0317,-2.77792 3.0305,-1.51523 6.566,-11.61676 4.5457,-12.87945 -2.0203,-1.26269 -13.6371,6.06092 -17.1726,11.11168 -1.3034,1.86204 -12.8794,5.80838 -17.1726,3.53553 -4.2931,-2.27284 -15.1523,-9.59645 -15.1523,-13.13198 0,-3.53553 -2.2728,0 -5.3033,-6.56599 z"
         style="fill:#ffb380;fill-opacity:1;stroke:none;display:inline" />
      <path
         sodipodi:nodetypes="ccczccccc"
         inkscape:connector-curvature="0"
         id="path4492"
         d="m 1476.338,191.70798 c -7.0711,8.08122 -22.2234,18.68781 -39.9011,18.18274 -17.6776,-0.50508 -30.8097,-9.09138 -51.5178,-14.14213 -121.7234,43.43655 -135.3605,225.76908 -5.0508,227.28431 130.3097,1.51523 120.7133,12.12183 186.3733,-7.07107 -10.6067,5.55585 -47.8944,28.34801 -117.1778,32.32489 -45.8184,3.62337 -208.5964,-17.17259 -209.6066,-135.86552 -0.4089,-78.3515 111.1168,-124.24877 151.0178,-123.74369 32.3248,4.04061 70.7107,10.10153 85.863,3.03047 z"
         style="fill:#008000;fill-opacity:1;stroke:none;display:inline" />
      <path
         sodipodi:nodetypes="cccc"
         inkscape:connector-curvature="0"
         id="path4494"
         d="m 1390.5362,189.29988 c 10.6066,10.10153 33.8401,12.62691 44.9518,14.64721 11.1117,2.02031 30.6224,-4.84049 35.2381,-10.13216 -19.9799,3.36748 -68.5731,-3.5049 -80.1899,-4.51505 z"
         style="fill:#004f00;fill-opacity:1;stroke:none;display:inline" />
      <path
         sodipodi:nodetypes="ccccc"
         inkscape:connector-curvature="0"
         id="path3694"
         d="m 1282.3886,394.24356 c -22.2232,44.95179 30.8097,94.95434 155.0585,61.6193 124.2488,37.37565 175.2615,-28.28427 156.0686,-57.07361 57.0736,47.7297 -76.1403,98.36361 -158.2784,70.64754 -121.0289,30.87278 -208.6596,-35.2922 -152.8487,-75.19323 z"
         style="fill:#008080;stroke:none;display:inline" />
      <path
         sodipodi:nodetypes="cccscc"
         inkscape:connector-curvature="0"
         id="path4496"
         d="m 1357.645,194.73843 c -33.8401,11.61675 -120.2082,51.01271 -118.6929,124.24877 5.5558,68.69037 59.094,120.20815 194.4544,130.30967 -45.4569,-6.06091 -92.4644,-17.90584 -132.33,-43.94163 -13.9277,-9.09604 -35.0148,-33.21343 -39.8035,-47.3544 -35.0932,-110.10546 84.5027,-157.70657 96.372,-163.26241 z"
         style="fill:#004f00;fill-opacity:1;stroke:none;display:inline" />
      <path
         sodipodi:nodetypes="cccczc"
         inkscape:connector-curvature="0"
         id="path4498"
         d="m 1552.1429,207.64285 c -11.2014,18.60733 -2.2414,35.72172 16.8858,32.87202 -18.2142,26.42857 6.4286,47.5 30.3572,32.85714 -16.4285,22.85715 19.7287,41.72444 35.7927,26.05656 C 1634.2857,286.75 1625,265.5 1607.8572,246.57143 1590.7143,227.64286 1578.9285,220.5 1552.1429,207.64285 z"
         style="fill:#fafdfe;fill-opacity:1;stroke:none;display:inline" />
      <path
         sodipodi:nodetypes="ccccc"
         inkscape:connector-curvature="0"
         id="path4468"
         d="m 1437.4471,461.16616 c 11.1116,8.08123 58.0837,14.89975 92.6815,11.61676 -21.2133,6.56599 -72.0347,12.99457 -92.2378,4.15573 -6.8184,-0.25254 -70.6494,10.23894 -120.6519,-7.43873 53.033,7.57615 96.9747,1e-5 120.2082,-8.33376 z"
         style="fill:#483e37;stroke:none;display:inline" />
      <path
         sodipodi:nodetypes="cccccccc"
         inkscape:connector-curvature="0"
         id="path7346"
         d="m 1435.2227,63.91842 c 14.7719,-0.07397 21.0763,3.263534 29.5616,7.707669 28.7263,6.060915 42.3633,31.441001 46.4039,45.835671 11.6167,51.51779 -37.3756,75.76144 -43.9416,76.77159 -6.566,1.01016 -60.6092,2.02031 -68.1853,-3.53553 -8.0813,-3.03046 -40.9112,-17.17259 -41.4163,-59.599 -0.5051,-11.86929 7.5501,-45.149283 44.3835,-59.220191 6.6371,-5.66121 24.4736,-7.947518 33.1942,-7.960209 z"
         style="fill:#ffccaa;stroke:none" />
      <path
         sodipodi:nodetypes="cscscc"
         inkscape:connector-curvature="0"
         id="path7362"
         d="m 1462.7009,194.23335 c 11.3642,-8.58629 26.2639,-18.68782 30.052,-20.20305 3.7881,-1.51523 16.415,-12.12183 13.3845,-13.88959 -3.0304,-1.76777 -14.1421,12.87944 -23.7385,18.18274 -9.5965,5.3033 -28.2844,0.75762 -37.1231,14.14214 -1.2627,4.29315 10.354,1.76776 17.4251,1.76776 z"
         style="fill:#deaa87;fill-opacity:1;stroke:none" />
      <path
         sodipodi:nodetypes="cczc"
         inkscape:connector-curvature="0"
         id="path7350"
         d="m 1444.8969,198.5265 c -3.1568,-24.49619 42.6803,-30.54686 52.528,-31.94607 -12.8794,16.2887 -29.8046,14.13713 -39.5222,19.69798 -9.7176,5.56085 -11.6168,8.33375 -13.0058,12.24809 z"
         style="fill:#552200;stroke:none" />
      <path
         style="fill:#552200;stroke:none"
         d="m 1421.1224,198.14769 c 3.1568,-24.49619 -40.66,-28.02148 -50.5077,-29.42069 22.9809,18.43528 35.6079,13.76333 44.8255,21.08694 3.4319,2.72667 4.2932,4.41941 5.6822,8.33375 z"
         id="path7354"
         inkscape:connector-curvature="0"
         sodipodi:nodetypes="cccc" />
      <path
         sodipodi:nodetypes="ccccccccccccc"
         inkscape:connector-curvature="0"
         id="path7348"
         d="m 1392.8571,76.749999 c 8.0357,-0.892857 -14.6428,30.178571 -7.6785,36.607141 6.9643,6.42857 36.4285,11.25 51.6071,11.42857 15.1786,0.17858 48.9286,-6.42857 50.8929,-14.28571 1.9643,-7.85714 -21.6053,-35.955949 -11.4286,-35.000001 52.6785,7.142857 48.0357,80.535711 20.7143,93.750001 -19.1072,9.64286 -38.4643,8.39286 -47.3928,16.42857 -13.9286,18.75 13.6428,44.82143 14.1785,64.10715 0.5357,19.28571 -48.1072,54.64285 -23.4643,91.78571 -30,-25 -37.25,-86.96429 -28.5,-108.92857 4.4643,-13.03572 14.5715,-40.53572 4.9286,-46.78572 -9.6428,-6.25 -28.8639,-4.34897 -43.5,-15 -26.6072,-22.49999 -30.8929,-85.357141 19.6428,-94.107141 z"
         style="fill:#784421;stroke:none" />
      <path
         style="fill:#deaa87;fill-opacity:1;stroke:none"
         d="m 1409.197,193.72827 c -11.3642,-8.58629 -27.0215,-17.17259 -30.8096,-18.68782 -3.7881,-1.51523 -15.6574,-13.63706 -12.6269,-15.40482 3.0304,-1.76777 15.6573,9.34391 25.2537,14.64721 9.5965,5.3033 26.7692,4.29315 35.6079,17.67767 1.2627,4.29315 -10.354,2.0203 -17.4251,1.76776 z"
         id="path7364"
         inkscape:connector-curvature="0"
         sodipodi:nodetypes="cscscc" />
      <path
         sodipodi:nodetypes="ccccccccc"
         inkscape:connector-curvature="0"
         id="path7356"
         d="m 1390.3571,79.785714 c -5.7142,4.285714 -26.0714,22.857146 -22.8571,46.785716 3.2143,23.92857 35,46.07143 47.8571,50 12.5001,4.64286 22.8572,20.71428 15.3572,62.14286 -15,38.92857 -4.6429,74.28571 -2.1429,85 -15.3571,-28.21429 -20,-47.14286 -18.9285,-71.78572 3.5714,-21.78571 16.4285,-58.57143 10,-65.35714 -6.4286,-6.78572 -65.7144,-3.57143 -67.8572,-61.42857 1.4286,-29.285717 28.2143,-45.714289 38.5714,-45.357146 z"
         style="fill:#552200;fill-opacity:1;stroke:none" />
      <path
         sodipodi:nodetypes="cccccc"
         inkscape:connector-curvature="0"
         id="path7358"
         d="m 1478.2143,78.714285 c 5.7143,10.357143 21.4286,20 21.7857,30.000005 0.3571,10 -31.0714,26.42857 -54.6429,23.57142 -23.5714,-2.85714 -32.1428,-6.07142 -37.1428,-9.28571 32.1429,6.78571 78.2143,-0.35714 82.1428,-12.5 3.9286,-12.142857 -12.5,-22.857143 -12.1428,-31.785715 z"
         style="fill:#552200;fill-opacity:1;stroke:none" />
      <path
         sodipodi:nodetypes="ccccccccc"
         inkscape:connector-curvature="0"
         id="path7360"
         d="m 1470.277,80.338655 c 2.7779,13.384521 12.3744,22.475895 2.0203,27.021585 -10.354,4.54568 -28.5368,15.9099 -63.8921,10.6066 -10.354,-2.27285 -21.7183,-9.34391 -19.1929,-15.40483 2.5254,-6.060919 8.3337,-21.213203 7.8287,-22.98097 -5.5559,9.091373 -12.6269,22.72843 -12.3744,28.28427 0.2525,5.55584 18.4353,14.14214 37.1231,14.89975 18.6878,0.75762 44.4468,0 64.6498,-11.61675 2.0203,-4.79823 -15.1523,-26.011431 -16.1625,-30.809655 z"
         style="fill:#deaa87;fill-opacity:1;stroke:none" />
    </g>
    <path
       transform="matrix(0.64319146,0,0,0.74351353,-704.75253,548.48021)"
       d="m 1341.0714,666.39288 a 11.25,6.25 0 1 1 -22.5,0 11.25,6.25 0 1 1 22.5,0 z"
       sodipodi:ry="6.25"
       sodipodi:rx="11.25"
       sodipodi:cy="666.39288"
       sodipodi:cx="1329.8214"
       id="path7467-5"
       style="fill:#484537;fill-opacity:1;stroke:none"
       sodipodi:type="arc" />
    <path
       sodipodi:type="arc"
       style="fill:#484537;fill-opacity:1;stroke:none"
       id="path7469-4"
       sodipodi:cx="1329.8214"
       sodipodi:cy="666.39288"
       sodipodi:rx="11.25"
       sodipodi:ry="6.25"
       d="m 1341.0714,666.39288 a 11.25,6.25 0 1 1 -22.5,0 11.25,6.25 0 1 1 22.5,0 z"
       transform="matrix(0.48938481,0,0,0.6018919,-326.83861,605.68018)" />
    <path
       transform="matrix(0.53133208,0,0,0.74351353,-362.32908,548.39169)"
       d="m 1341.0714,666.39288 a 11.25,6.25 0 1 1 -22.5,0 11.25,6.25 0 1 1 22.5,0 z"
       sodipodi:ry="6.25"
       sodipodi:rx="11.25"
       sodipodi:cy="666.39288"
       sodipodi:cx="1329.8214"
       id="path7471-5"
       style="fill:#484537;fill-opacity:1;stroke:none"
       sodipodi:type="arc" />
    <path
       transform="matrix(0.48938481,0,0,0.58418919,-464.94999,613.60467)"
       d="m 1341.0714,666.39288 a 11.25,6.25 0 1 1 -22.5,0 11.25,6.25 0 1 1 22.5,0 z"
       sodipodi:ry="6.25"
       sodipodi:rx="11.25"
       sodipodi:cy="666.39288"
       sodipodi:cx="1329.8214"
       id="path7473-6"
       style="fill:#484537;fill-opacity:1;stroke:none"
       sodipodi:type="arc" />
    <path
       sodipodi:type="arc"
       style="fill:#484537;fill-opacity:1;stroke:none"
       id="path7475-8"
       sodipodi:cx="1329.8214"
       sodipodi:cy="666.39288"
       sodipodi:rx="11.25"
       sodipodi:ry="6.25"
       d="m 1341.0714,666.39288 a 11.25,6.25 0 1 1 -22.5,0 11.25,6.25 0 1 1 22.5,0 z"
       transform="matrix(0.43345512,0,0,0.53108109,-307.51791,642.82172)" />
    <path
       inkscape:connector-curvature="0"
       id="path7465-3"
       d="m 251.59664,1007.2413 23.41888,-11.50674 0.26823,-2.30336 z"
       style="fill:#484537;fill-opacity:1;stroke:none"
       sodipodi:nodetypes="cccc" />
    <path
       sodipodi:nodetypes="cccc"
       inkscape:connector-curvature="0"
       id="path7455-9"
       d="m 246.73773,1010.6341 -94.88888,34.5898 5.45026,-4.6941 z"
       style="fill:#484537;stroke:none" />
    <path
       sodipodi:nodetypes="cccc"
       inkscape:connector-curvature="0"
       id="path7439-6"
       d="m 136.6087,1039.2167 110.74081,-28.7667 -88.97025,29.9174 z"
       style="fill:#6c6753;fill-opacity:1;stroke:none" />
    <path
       sodipodi:nodetypes="cccc"
       style="fill:#6c6753;fill-opacity:1;stroke:none"
       d="m 358.09031,1039.2167 -110.7408,-28.7667 89.28481,30.2715 z"
       id="path7441-4"
       inkscape:connector-curvature="0" />
    <path
       sodipodi:nodetypes="cccc"
       inkscape:connector-curvature="0"
       id="path7445-7"
       d="m 174.04664,1000.0496 14.15718,-1.32762 59.14569,11.28542 z"
       style="fill:#6c6753;fill-opacity:1;stroke:none" />
    <path
       sodipodi:nodetypes="cccc"
       inkscape:connector-curvature="0"
       id="path7447-9"
       d="m 247.34951,1010.0074 74.54369,-7.8777 16.42239,2.8767 z"
       style="fill:#6c6753;fill-opacity:1;stroke:none" />
    <path
       sodipodi:nodetypes="cccc"
       inkscape:connector-curvature="0"
       id="path7449-9"
       d="m 265.5965,993.6324 9.7528,-0.22128 -27.99979,16.59628 z"
       style="fill:#6c6753;fill-opacity:1;stroke:none" />
    <rect
       y="919.23383"
       x="176.12332"
       height="12.584181"
       width="142.83044"
       id="rect7428-8"
       style="fill:#1c241c;fill-opacity:1;stroke:none" />
    <rect
       y="805.03247"
       x="185.18387"
       height="63.550117"
       width="125.84181"
       id="rect7430-2"
       style="opacity:0.76489024;fill:#3e4837;fill-opacity:1;stroke:none" />
    <path
       sodipodi:nodetypes="cscc"
       inkscape:connector-curvature="0"
       id="path7453-2"
       d="m 137.21881,1039.1654 c -0.0954,4.3742 4.88613,6.6506 8.12897,6.7793 8.08676,0.3205 12.05642,-3.641 12.32034,-5.635 -0.62596,-0.038 -20.44931,-1.1443 -20.44931,-1.1443 z"
       style="fill:#24221c;fill-opacity:1;stroke:none" />
    <path
       style="fill:#484537;stroke:none"
       d="m 252.60095,1012.2385 87.88896,31.7683 -3.72002,-3.477 z"
       id="path7457-2"
       inkscape:connector-curvature="0"
       sodipodi:nodetypes="cccc" />
    <path
       style="fill:#24221c;fill-opacity:1;stroke:none"
       d="m 357.44066,1039.276 c 0.0954,4.3743 -4.88614,6.6507 -8.12897,6.7793 -8.08677,0.3206 -12.05643,-3.641 -12.32034,-5.6349 0.62596,-0.038 20.44931,-1.1444 20.44931,-1.1444 z"
       id="path7459-0"
       inkscape:connector-curvature="0"
       sodipodi:nodetypes="cscc" />
    <path
       inkscape:connector-curvature="0"
       id="path7461-1"
       d="m 247.34951,1009.6754 89.66227,-1.6596 0.9438,-3.2086 z"
       style="fill:#484537;fill-opacity:1;stroke:none" />
    <path
       sodipodi:nodetypes="cccc"
       style="fill:#484537;fill-opacity:1;stroke:none"
       d="m 236.02369,1008.2371 -58.98826,-5.5322 -2.045,-2.5446 z"
       id="path7463-0"
       inkscape:connector-curvature="0" />
    <path
       sodipodi:nodetypes="cccccc"
       inkscape:connector-curvature="0"
       id="path7477-5"
       d="m 233.04646,1007.4363 4.44903,5.9458 19.13149,-0.078 6.11771,-4.6158 -9.12094,-4.0683 z"
       style="fill:#3e4837;fill-opacity:1;stroke:none" />
    <path
       sodipodi:nodetypes="cccccc"
       inkscape:connector-curvature="0"
       id="path7479-7"
       d="m 239.72018,1008.5096 c -0.22242,1.987 4.69191,3.4559 7.62933,3.5423 2.93742,0.086 8.38777,-1.7281 8.05408,-2.5921 -5.38453,-31.79437 -8.05408,-71.01912 -2.55836,-77.32613 -5.49572,0.0555 -8.48529,-0.081 -10.34433,0.0864 4.84861,6.22059 1.66841,45.44534 -2.78072,76.28943 z"
       style="fill:#1f241c;fill-opacity:1;stroke:none" />
    <path
       sodipodi:nodetypes="ccccc"
       inkscape:connector-curvature="0"
       id="path7481-8"
       d="m 185.49825,805.03245 c 29.57279,6.92129 91.54994,8.17973 124.58342,0.62922 8.1797,16.67404 8.1797,48.44909 1.25843,62.60629 -43.41549,15.2897 -81.79723,15.2897 -126.78564,-0.31461 -6.92126,-12.89877 -6.32886,-50.96593 0.94379,-62.9209 z"
       style="fill:#1f241c;stroke:#000000;stroke-width:0.88089263px;stroke-linecap:butt;stroke-linejoin:miter;stroke-opacity:1" />
    <path
       sodipodi:nodetypes="ccccc"
       inkscape:connector-curvature="0"
       id="path4468-5"
       d="m 248.90296,906.26349 c 9.78812,7.1187 51.16551,13.12509 81.64246,10.23312 -18.68664,5.78393 -63.45484,11.44682 -81.25161,3.66075 -6.00627,-0.22246 -62.23453,9.01941 -106.28137,-6.55273 46.71638,6.67378 85.4243,2e-5 105.89052,-7.34114 z"
       style="fill:#483e37;stroke:none;display:inline" />
    <rect
       y="839.21545"
       x="242.396"
       height="117.62634"
       width="10.788404"
       id="rect7435-1"
       style="fill:#dee3db;fill-opacity:1;stroke:#f8fafa;stroke-width:0.78904271;stroke-opacity:1" />
  </g>
</svg>
