<?xml version="1.0" encoding="UTF-8" standalone="no"?>
<!-- Created with Inkscape (http://www.inkscape.org/) -->

<svg
   xmlns:dc="http://purl.org/dc/elements/1.1/"
   xmlns:cc="http://creativecommons.org/ns#"
   xmlns:rdf="http://www.w3.org/1999/02/22-rdf-syntax-ns#"
   xmlns:svg="http://www.w3.org/2000/svg"
   xmlns="http://www.w3.org/2000/svg"
   xmlns:sodipodi="http://sodipodi.sourceforge.net/DTD/sodipodi-0.dtd"
   xmlns:inkscape="http://www.inkscape.org/namespaces/inkscape"
   width="140"
   height="140"
   id="svg4127"
   version="1.1"
   inkscape:version="0.48.4 r9939"
   sodipodi:docname="tete2.svg">
  <defs
     id="defs4129" />
  <sodipodi:namedview
     id="base"
     pagecolor="#ffffff"
     bordercolor="#666666"
     borderopacity="1.0"
     inkscape:pageopacity="0.0"
     inkscape:pageshadow="2"
     inkscape:zoom="5.6"
     inkscape:cx="35.496205"
     inkscape:cy="42.02312"
     inkscape:document-units="px"
     inkscape:current-layer="layer1"
     showgrid="false"
     inkscape:window-width="1600"
     inkscape:window-height="876"
     inkscape:window-x="0"
     inkscape:window-y="24"
     inkscape:window-maximized="1" />
  <metadata
     id="metadata4132">
    <rdf:RDF>
      <cc:Work
         rdf:about="">
        <dc:format>image/svg+xml</dc:format>
        <dc:type
           rdf:resource="http://purl.org/dc/dcmitype/StillImage" />
        <dc:title></dc:title>
      </cc:Work>
    </rdf:RDF>
  </metadata>
  <g
     inkscape:label="Calque 1"
     inkscape:groupmode="layer"
     id="layer1"
     transform="translate(0,-912.36218)">
    <path
       inkscape:connector-curvature="0"
       id="path3878"
       d="m 12.930315,947.76668 9.784237,0.61152 -1.426867,7.33819 -9.172731,1.42685 z"
       style="fill:#800000;fill-opacity:1;stroke:none" />
    <path
       style="fill:#800000;fill-opacity:1;stroke:none"
       d="m 125.44906,947.15516 -9.78424,0.61152 1.42686,7.33818 9.17273,1.42687 z"
       id="path3876"
       inkscape:connector-curvature="0" />
    <path
       style="fill:#ffaaaa;fill-opacity:1;stroke:none"
       d="m 51.4909,916.09057 c 5.981622,-2.45029 24.503027,-2.95479 32.052114,-0.39636 5.819469,0.82878 5.27896,1.83772 15.224306,6.45005 16.43146,3.89167 23.06167,34.01597 20.17897,110.69604 -20.17897,16.7197 -82.157218,-19.6024 -91.958433,-27.9622 -9.801217,-8.36 -10.882222,-33.58363 -6.522125,-57.94253 4.360097,-24.35889 25.043551,-28.39469 31.025168,-30.845 z"
       id="path3009"
       inkscape:connector-curvature="0"
       sodipodi:nodetypes="zccczsz" />
    <path
       style="fill:#917c6f;fill-opacity:1;stroke:none"
       d="m 20.357634,945.78247 c 13.692872,-9.22467 -1.455773,24.28683 3.516905,36.68249 4.972668,12.39564 20.265452,12.61182 45.489149,13.47658 24.791302,-0.57645 38.179592,0.15006 42.063092,-12.97213 3.8835,-13.12213 -9.23282,-41.82257 3.48372,-36.61039 3.17099,4.61233 12.29922,63.65248 21.91811,75.44498 -12.07063,12.4014 -50.456927,28.3326 -67.464922,28.3326 -17.007975,0 -56.546328,-13.9565 -65.1944441,-25.7756 5.9095601,-18.5935 7.2170031,-25.21947 16.1883901,-78.57853 z"
       id="path3929"
       inkscape:connector-curvature="0"
       sodipodi:nodetypes="cscsccccc" />
    <path
       style="fill:#917c6f;fill-opacity:1;stroke:none"
       d="m 24.619029,934.51721 c -0.407672,-5.29981 14.845233,-17.04524 15.864417,-13.88575 -1.426862,2.85375 -0.03493,6.03796 3.43028,9.29936 -5.503635,-0.81534 -12.975702,1.5288 -19.294697,4.58639 z"
       id="path3952"
       inkscape:connector-curvature="0"
       sodipodi:nodetypes="cccc" />
    <path
       sodipodi:nodetypes="cccc"
       inkscape:connector-curvature="0"
       id="path3954"
       d="m 110.76026,933.54692 c 0.40768,-5.2998 -15.899388,-16.71476 -16.918579,-13.55526 1.426862,2.85373 0.611513,5.60554 -2.853741,8.86695 5.503634,-0.81534 13.45332,1.63072 19.77232,4.68831 z"
       style="fill:#917c6f;fill-opacity:1;stroke:none" />
    <path
       style="fill:#917c6f;fill-opacity:1;stroke:none"
       d="m 30.83551,939.1499 c 3.66394,-0.62374 68.06057,-0.47673 71.46471,-0.44533 4.04535,2.40753 1.26804,5.4376 2.4988,7.28217 -12.215366,-0.57168 -60.266883,-0.0813 -74.751462,0.83225 0.219969,-1.57686 0.43161,-4.93344 0.787952,-7.66909 z"
       id="path3956"
       inkscape:connector-curvature="0"
       sodipodi:nodetypes="ccccc" />
    <path
       style="fill:#6c5353;fill-opacity:1;stroke:none"
       d="m 30.148815,946.86733 c 0.121516,-4.72673 1.211522,-3.82662 2.142379,-5.24924 17.172355,-1.01368 57.969246,-0.45796 70.764926,-0.5893 1.28221,2.87216 0.45705,-0.60112 1.38634,5.14041 -9.787132,-0.36741 -65.295406,0.23813 -74.293645,0.69813 z"
       id="path3902"
       inkscape:connector-curvature="0"
       sodipodi:nodetypes="ccccc" />
    <path
       style="fill:#e21b0e;fill-opacity:1;stroke:none"
       d="m 65.955405,955.68561 c 0.720666,-1.87375 7.299948,-1.11089 7.588214,0.0422 0.288268,1.15309 0.525586,2.37162 -0.288266,2.59442 -0.864823,-1.15307 -6.630239,-1.41512 -7.206781,-0.11789 -1.391885,0.1761 -0.237301,-1.65393 -0.09318,-2.51875 z"
       id="path3969"
       inkscape:connector-curvature="0"
       sodipodi:nodetypes="ccccc" />
    <path
       style="fill:#d38d5f;fill-opacity:1;stroke:none"
       d="m 36.37171,955.00294 c 9.172725,-0.81535 19.364647,-0.61153 22.014535,0.5096 -3.36333,0 -6.930497,0.10191 -11.720701,0 -4.790199,-0.20385 -7.949693,-0.10192 -10.293834,-0.5096 z"
       id="path3971"
       inkscape:connector-curvature="0"
       sodipodi:nodetypes="cccc" />
    <path
       style="fill:#ffffff;fill-opacity:1;stroke:#000000;stroke-width:0.04471822px;stroke-linecap:butt;stroke-linejoin:miter;stroke-opacity:1"
       d="m 45.028891,955.35033 c -0.496893,1.40034 0.481728,2.83523 2.243448,2.92556 1.761713,0.0903 3.2111,-1.31064 2.680325,-2.83521 -2.823264,0.0113 -3.704123,-0.0904 -4.923773,-0.0904 z"
       id="path3973"
       inkscape:connector-curvature="0"
       sodipodi:nodetypes="cccc" />
    <path
       style="fill:#000000;fill-opacity:1;stroke:none"
       d="m 46.564748,955.37292 c -0.383963,0.56465 0.04517,1.49069 0.83569,1.54715 0.79051,0.0565 1.493289,-0.73574 1.106717,-1.49068 -1.106717,0.0339 -1.942407,-0.0565 -1.942407,-0.0565 z"
       id="path3975"
       inkscape:connector-curvature="0"
       sodipodi:nodetypes="cccc" />
    <path
       sodipodi:nodetypes="cccc"
       inkscape:connector-curvature="0"
       id="path3977"
       d="m 102.80278,955.01523 c -9.172729,-0.81534 -19.364644,-0.61152 -22.014539,0.50959 3.363332,0 6.930498,0.10192 11.720703,0 4.790198,-0.20383 7.949686,-0.10193 10.293836,-0.50959 z"
       style="fill:#d38d5f;fill-opacity:1;stroke:none" />
    <path
       sodipodi:nodetypes="cccc"
       inkscape:connector-curvature="0"
       id="path3979"
       d="m 99.371385,955.42251 c 1.597395,4.50181 -1.54865,9.11462 -7.212177,9.40506 -5.663528,0.29044 -10.322981,-4.21346 -8.616663,-9.11461 9.076173,0.0363 11.90794,-0.29045 15.82884,-0.29045 z"
       style="fill:#ffffff;fill-opacity:1;stroke:#000000;stroke-width:0.14375928px;stroke-linecap:butt;stroke-linejoin:miter;stroke-opacity:1" />
    <path
       sodipodi:nodetypes="cccc"
       inkscape:connector-curvature="0"
       id="path3981"
       d="m 94.433958,955.49513 c 1.234341,1.81524 -0.145225,4.79221 -2.686567,4.97372 -2.541317,0.18155 -4.800597,-2.36526 -3.557853,-4.79221 3.557853,0.10889 6.24442,-0.18151 6.24442,-0.18151 z"
       style="fill:#000000;fill-opacity:1;stroke:none" />
    <path
       style="fill:#c87137;fill-opacity:1;stroke:none"
       d="m 59.299428,989.45162 c 4.805714,-0.83404 6.215293,-2.36775 7.399145,-3.25562 0.608344,0.57704 1.035895,1.33183 0,2.36772 -1.035882,1.03588 -4.883438,0.7399 -7.399145,0.8879 z"
       id="path3993"
       inkscape:connector-curvature="0"
       sodipodi:nodetypes="cccc" />
    <path
       sodipodi:nodetypes="cccc"
       inkscape:connector-curvature="0"
       id="path3995"
       d="m 79.599518,989.45162 c -4.805718,-0.83404 -6.215293,-2.36775 -7.399146,-3.25562 -0.608334,0.57704 -1.035897,1.33183 0,2.36772 1.035883,1.03588 4.883437,0.7399 7.399146,0.8879 z"
       style="fill:#c87137;fill-opacity:1;stroke:none" />
    <path
       style="fill:#241c1c;stroke:none"
       d="m 57.782926,1007.4665 c 4.824287,0.972 17.414267,1.5308 23.433209,0 -2.41219,1.9859 -10.323622,1.9417 -11.924517,1.9417 -1.600875,0 -7.42768,-0.07 -11.508692,-1.9417 z"
       id="path4001"
       inkscape:connector-curvature="0"
       sodipodi:nodetypes="cccc" />
    <path
       style="fill:#483737;fill-opacity:1;stroke:none"
       d="m 20.067796,947.9148 c -5.096915,31.43471 -10.089491,61.1135 -15.8549048,76.2477 12.6839218,15.8549 58.6631268,27.5299 67.8877898,27.2415 9.224679,-0.2882 54.050809,-17.8727 64.716829,-29.4036 -7.49504,-9.8013 -16.57559,-56.06867 -20.17897,-71.05874 -13.83701,4.32406 22.62927,48.86188 1.87376,68.75264 -10.66603,11.2425 -38.051759,29.4036 -46.699887,28.8271 -8.648125,-0.5765 -47.85296,-20.1791 -53.330111,-31.4215 -15.854894,-29.4037 11.438879,-54.78471 1.585494,-69.1851 z"
       id="path3900"
       inkscape:connector-curvature="0"
       sodipodi:nodetypes="ccccccccc" />
    <path
       style="fill:#e21b0e;fill-opacity:1;stroke:none"
       d="m 41.64014,940.9381 c -13.118608,0.035 -27.550767,1.24077 -29.7293,2.96065 -2.649889,1.6307 -2.648175,25.47911 -1.425137,29.55587 1.223025,4.07677 49.966499,6.48185 52.793209,2.24177 3.26142,-4.89215 5.297754,-28.53639 0.201794,-32.40933 -2.229472,-1.69439 -11.637207,-2.37611 -21.840566,-2.34896 z m -3.383135,3.31378 c 9.480599,0.003 18.883512,0.82613 21.351865,2.70209 5.095959,3.87292 4.689711,20.38517 1.428298,25.2773 -2.826733,4.24011 -44.031461,2.64847 -45.254487,-1.42829 -1.223038,-4.07677 -2.444957,-22.4201 0.204949,-24.0508 1.996982,-1.57656 12.177126,-2.50385 22.269375,-2.5003 z"
       id="path3958"
       inkscape:connector-curvature="0" />
    <path
       id="path3965"
       d="m 96.990273,940.8403 c 13.118607,0.0349 27.550767,1.24074 29.729297,2.96062 2.64988,1.63072 2.64816,25.47913 1.42512,29.55589 -1.22302,4.07675 -49.966484,6.48185 -52.793208,2.24175 -3.261407,-4.89213 -5.297755,-28.53637 -0.201781,-32.40931 2.229468,-1.69441 11.637214,-2.37613 21.840572,-2.34895 z m 3.383137,3.31374 c -9.480606,0.003 -18.883512,0.82616 -21.351871,2.70212 -5.095964,3.8729 -4.689715,20.38517 -1.428299,25.2773 2.826732,4.24009 44.03146,2.64847 45.25448,-1.42832 1.22305,-4.07673 2.44495,-22.42005 -0.20495,-24.05079 -1.99698,-1.57657 -12.1771,-2.50382 -22.26936,-2.50031 z"
       style="fill:#e21b0e;fill-opacity:1;stroke:none"
       inkscape:connector-curvature="0" />
    <path
       style="fill:#aa0000;fill-opacity:1;stroke:none"
       d="m 76.833618,945.93213 c 12.943723,-6.52283 44.436752,-2.24222 46.984732,-0.40767 2.54797,1.83455 2.17982,24.58807 0.91726,26.49899 -3.771,5.70747 -45.863607,4.68829 -47.494318,2.85373 -1.375913,-0.33124 -7.268099,-14.33874 -1.453937,-27.99591 -1.320177,3.36332 -4.794984,16.55548 2.027234,27.0022 24.519151,4.94556 43.933231,-0.21811 45.494161,-1.55428 1.9782,-1.09898 2.34415,-23.64525 0,-25.78554 -2.34414,-2.1403 -29.658477,-6.62472 -46.475132,-0.61152 z"
       id="path3918"
       inkscape:connector-curvature="0"
       sodipodi:nodetypes="ccccccccc" />
    <path
       sodipodi:nodetypes="ccccccccc"
       inkscape:connector-curvature="0"
       id="path3920"
       d="m 61.510321,946.02997 c -12.943728,-6.52284 -44.436751,-2.24225 -46.984728,-0.40768 -2.547982,1.83453 -2.179834,24.58807 -0.917267,26.49897 3.771008,5.70748 45.863619,4.68829 47.494317,2.85374 1.375917,-0.33125 7.2681,-14.33876 1.453954,-27.99594 1.320165,3.36336 4.794971,16.55551 -2.02725,27.00221 -24.519142,4.94559 -43.933219,-0.21808 -45.494153,-1.55425 -1.978196,-1.09901 -2.344146,-23.64525 0,-25.78554 2.34414,-2.14031 29.658474,-6.62475 46.475127,-0.61151 z"
       style="fill:#aa0000;fill-opacity:1;stroke:none" />
  </g>
</svg>
