<?xml version="1.0" encoding="UTF-8" standalone="no"?>
<!-- Created with Inkscape (http://www.inkscape.org/) -->

<svg
   xmlns:dc="http://purl.org/dc/elements/1.1/"
   xmlns:cc="http://creativecommons.org/ns#"
   xmlns:rdf="http://www.w3.org/1999/02/22-rdf-syntax-ns#"
   xmlns:svg="http://www.w3.org/2000/svg"
   xmlns="http://www.w3.org/2000/svg"
   xmlns:sodipodi="http://sodipodi.sourceforge.net/DTD/sodipodi-0.dtd"
   xmlns:inkscape="http://www.inkscape.org/namespaces/inkscape"
   width="140"
   height="140"
   id="svg4127"
   version="1.1"
   inkscape:version="0.48.4 r9939"
   sodipodi:docname="tete.svg">
  <defs
     id="defs4129" />
  <sodipodi:namedview
     id="base"
     pagecolor="#ffffff"
     bordercolor="#666666"
     borderopacity="1.0"
     inkscape:pageopacity="0.0"
     inkscape:pageshadow="2"
     inkscape:zoom="2.8"
     inkscape:cx="87.578788"
     inkscape:cy="76.062333"
     inkscape:document-units="px"
     inkscape:current-layer="layer1"
     showgrid="false"
     inkscape:window-width="1046"
     inkscape:window-height="669"
     inkscape:window-x="163"
     inkscape:window-y="96"
     inkscape:window-maximized="0" />
  <metadata
     id="metadata4132">
    <rdf:RDF>
      <cc:Work
         rdf:about="">
        <dc:format>image/svg+xml</dc:format>
        <dc:type
           rdf:resource="http://purl.org/dc/dcmitype/StillImage" />
        <dc:title />
      </cc:Work>
    </rdf:RDF>
  </metadata>
  <g
     inkscape:label="Calque 1"
     inkscape:groupmode="layer"
     id="layer1"
     transform="translate(0,-912.36218)">
    <path
       inkscape:connector-curvature="0"
       id="path3878"
       d="m 13.360667,947.86885 9.715332,0.6072 -1.416816,7.28651 -9.108136,1.41682 z"
       style="fill:#800000;fill-opacity:1;stroke:none" />
    <path
       style="fill:#800000;fill-opacity:1;stroke:none"
       d="m 125.08703,947.26164 -9.71534,0.60721 1.41682,7.28649 9.10813,1.41683 z"
       id="path3876"
       inkscape:connector-curvature="0" />
    <path
       style="fill:#ffaaaa;fill-opacity:1;stroke:none"
       d="m 51.649701,916.41581 c 5.939496,-2.43304 24.33047,-2.93397 31.826393,-0.39358 5.778491,0.82295 5.241785,1.82478 15.117095,6.40463 16.315741,3.86426 22.899271,33.77643 20.036871,109.91654 -20.036871,16.602 -81.578652,-19.4644 -91.310845,-27.7654 -9.732194,-8.301 -10.805589,-33.34707 -6.476194,-57.53442 4.329394,-24.18735 24.867185,-28.19472 30.80668,-30.62777 z"
       id="path3009"
       inkscape:connector-curvature="0"
       sodipodi:nodetypes="zccczsz" />
    <path
       style="fill:#917c6f;fill-opacity:1;stroke:none"
       d="m 20.735684,945.89861 c 13.596441,-9.15971 -1.44552,24.1158 3.492134,36.42415 4.937653,12.30835 20.122736,12.52303 45.168807,13.38175 24.616715,-0.57247 37.910725,0.14891 41.766875,-12.88083 3.85615,-13.02974 -9.1678,-41.52805 3.45918,-36.35259 3.14866,4.57985 12.21261,63.20421 21.76376,74.91371 -11.98562,12.314 -50.101594,28.133 -66.989815,28.133 -16.888204,0 -56.148115,-13.8582 -64.7353314,-25.594 5.8679444,-18.4626 7.1661824,-25.0419 16.0743904,-78.02519 z"
       id="path3929"
       inkscape:connector-curvature="0"
       sodipodi:nodetypes="cscsccccc" />
    <path
       style="fill:#917c6f;fill-opacity:1;stroke:none"
       d="m 24.967068,934.71266 c -0.404805,-5.26247 14.740686,-16.92519 15.752697,-13.78795 -1.416816,2.83365 -0.03472,5.99544 3.406125,9.23388 -5.464882,-0.80961 -12.88433,1.51803 -19.158822,4.55407 z"
       id="path3952"
       inkscape:connector-curvature="0"
       sodipodi:nodetypes="cccc" />
    <path
       sodipodi:nodetypes="cccc"
       inkscape:connector-curvature="0"
       id="path3954"
       d="m 110.50168,933.74921 c 0.4048,-5.26247 -15.787432,-16.59703 -16.799441,-13.45978 1.416813,2.83363 0.607205,5.56607 -2.833646,8.80451 5.464879,-0.80961 13.358587,1.61923 19.633087,4.65527 z"
       style="fill:#917c6f;fill-opacity:1;stroke:none" />
    <path
       style="fill:#917c6f;fill-opacity:1;stroke:none"
       d="m 39.065813,940.58234 c 2.63124,-1.41682 23.419497,-8.29851 30.330812,1.21442 8.125726,-8.29851 22.091532,-4.85767 28.568421,-2.42884 6.476894,2.42884 3.280324,7.89371 0.628143,7.0841 -9.938677,-8.29851 -19.915642,2.63124 -29.196564,0.60721 -7.661688,2.42883 -15.150598,-8.90572 -31.140422,0.2024 -6.072079,0.80962 -1.82163,-5.66727 0.80961,-6.67929 z"
       id="path3956"
       inkscape:connector-curvature="0"
       sodipodi:nodetypes="ccccccc" />
    <path
       style="fill:#6c5353;fill-opacity:1;stroke:none"
       d="m 38.337934,947.30033 c -3.721135,-8.15786 16.601969,-8.87346 22.040548,-7.58539 5.43857,1.28809 7.442257,6.01107 8.730333,6.01107 1.288095,0 6.297309,-5.5817 9.589073,-5.86794 3.291773,-0.28624 24.759832,-3.86425 19.607491,6.58354 -9.159708,-8.15787 -19.035008,1.86056 -29.053436,0.7156 -10.734039,1.14496 -13.167074,-9.87531 -30.914009,0.14312 z"
       id="path3902"
       inkscape:connector-curvature="0"
       sodipodi:nodetypes="ccccccc" />
    <path
       style="fill:#e21b0e;fill-opacity:1;stroke:none"
       d="m 66.012341,955.732 c 0.715592,-1.86056 7.248541,-1.10305 7.534778,0.0419 0.286236,1.14497 0.521885,2.35491 -0.286237,2.57617 -0.858731,-1.14497 -6.583547,-1.40516 -7.15603,-0.11707 -1.382081,0.17486 -0.235629,-1.64229 -0.09252,-2.50102 z"
       id="path3969"
       inkscape:connector-curvature="0"
       sodipodi:nodetypes="ccccc" />
    <path
       style="fill:#d38d5f;fill-opacity:1;stroke:none"
       d="m 36.636985,955.05415 c 9.108124,-0.80962 19.228271,-0.60722 21.859503,0.506 -3.339645,0 -6.881692,0.1012 -11.638161,0 -4.75647,-0.20241 -7.89371,-0.1012 -10.221342,-0.506 z"
       id="path3971"
       inkscape:connector-curvature="0"
       sodipodi:nodetypes="cccc" />
    <path
       style="fill:#ffffff;fill-opacity:1;stroke:#000000;stroke-width:0.10018429px;stroke-linecap:butt;stroke-linejoin:miter;stroke-opacity:1"
       d="m 43.442774,955.43365 c -1.113218,3.13724 1.079236,6.35188 5.026096,6.55428 3.94685,0.2024 7.193973,-2.93633 6.004855,-6.35188 -6.325085,0.0253 -8.298514,-0.2024 -11.030951,-0.2024 z"
       id="path3973"
       inkscape:connector-curvature="0"
       sodipodi:nodetypes="cccc" />
    <path
       style="fill:#000000;fill-opacity:1;stroke:none"
       d="m 46.883623,955.48424 c -0.860212,1.26502 0.101207,3.33966 1.872235,3.46616 1.771017,0.1265 3.345484,-1.64832 2.479431,-3.33965 -2.479431,0.0759 -4.351666,-0.12651 -4.351666,-0.12651 z"
       id="path3975"
       inkscape:connector-curvature="0"
       sodipodi:nodetypes="cccc" />
    <path
       sodipodi:nodetypes="cccc"
       inkscape:connector-curvature="0"
       id="path3977"
       d="m 102.60023,955.06635 c -9.108131,-0.80961 -19.228273,-0.60721 -21.859507,0.50601 3.339645,0 6.881693,0.1012 11.638161,0 4.756468,-0.20241 7.893706,-0.10121 10.221346,-0.50601 z"
       style="fill:#d38d5f;fill-opacity:1;stroke:none" />
    <path
       sodipodi:nodetypes="cccc"
       inkscape:connector-curvature="0"
       id="path3979"
       d="m 95.794431,955.44585 c 1.113215,3.13725 -1.079235,6.35188 -5.026086,6.55428 -3.946851,0.20241 -7.193976,-2.93632 -6.004859,-6.35187 6.325085,0.0253 8.298515,-0.20241 11.030945,-0.20241 z"
       style="fill:#ffffff;fill-opacity:1;stroke:#000000;stroke-width:0.10018429px;stroke-linecap:butt;stroke-linejoin:miter;stroke-opacity:1" />
    <path
       sodipodi:nodetypes="cccc"
       inkscape:connector-curvature="0"
       id="path3981"
       d="m 92.35359,955.49646 c 0.860205,1.26502 -0.101206,3.33964 -1.872235,3.46614 -1.771018,0.1265 -3.345487,-1.64832 -2.47943,-3.33964 2.47943,0.0759 4.351665,-0.1265 4.351665,-0.1265 z"
       style="fill:#000000;fill-opacity:1;stroke:none" />
    <path
       style="fill:#c87137;fill-opacity:1;stroke:none"
       d="m 59.403237,989.26022 c 4.771875,-0.82816 6.171523,-2.35106 7.34704,-3.2327 0.60406,0.57299 1.028599,1.32247 0,2.35106 -1.028589,1.02859 -4.849047,0.7347 -7.34704,0.88164 z"
       id="path3993"
       inkscape:connector-curvature="0"
       sodipodi:nodetypes="cccc" />
    <path
       sodipodi:nodetypes="cccc"
       inkscape:connector-curvature="0"
       id="path3995"
       d="m 79.56037,989.26022 c -4.771876,-0.82816 -6.171523,-2.35106 -7.34704,-3.2327 -0.60405,0.57299 -1.028599,1.32247 0,2.35106 1.028588,1.02859 4.849047,0.7347 7.34704,0.88164 z"
       style="fill:#c87137;fill-opacity:1;stroke:none" />
    <path
       style="fill:#241c1c;stroke:none"
       d="m 57.897414,1007.1483 c 4.790318,0.9651 17.291634,1.52 23.26819,0 -2.395204,1.9719 -10.250921,1.9279 -11.840543,1.9279 -1.589603,0 -7.375373,-0.069 -11.427647,-1.9279 z"
       id="path4001"
       inkscape:connector-curvature="0"
       sodipodi:nodetypes="cccc" />
    <path
       style="fill:#483737;fill-opacity:1;stroke:none"
       d="m 20.447884,948.01593 c -5.06102,31.21333 -10.018439,60.68307 -15.7432504,75.71077 12.5945984,15.7432 58.2500104,27.336 67.4097084,27.0497 9.159717,-0.2862 53.670178,-17.7469 64.261078,-29.1966 -7.44226,-9.7322 -16.45886,-55.67382 -20.03686,-70.55834 -13.73957,4.29361 22.4699,48.51784 1.86056,68.26844 -10.59091,11.1634 -37.783791,29.1966 -46.371015,28.6241 -8.587224,-0.5725 -47.515972,-20.0369 -52.954547,-31.2002 -15.74324,-29.19663 11.358325,-54.3989 1.574326,-68.69787 z"
       id="path3900"
       inkscape:connector-curvature="0"
       sodipodi:nodetypes="ccccccccc" />
    <path
       style="fill:#e21b0e;fill-opacity:1;stroke:none"
       d="m 41.868308,941.08837 c -13.026222,0.0347 -27.356745,1.23201 -29.519934,2.93978 -2.63123,1.61922 -2.6295272,25.29968 -1.415103,29.34774 1.214414,4.04805 49.614621,6.43619 52.421428,2.22597 3.23845,-4.85768 5.260446,-28.33542 0.20037,-32.18108 -2.213768,-1.68247 -11.555254,-2.35939 -21.686761,-2.33241 z m -3.35931,3.29042 c 9.413838,0.003 18.750532,0.82033 21.201501,2.68307 5.060075,3.84565 4.656688,20.24162 1.418239,25.09929 -2.806823,4.21024 -43.721377,2.62982 -44.935791,-1.41824 -1.214424,-4.04805 -2.427737,-22.2622 0.203505,-23.88142 1.982917,-1.56546 12.091373,-2.48621 22.112546,-2.4827 z"
       id="path3958"
       inkscape:connector-curvature="0" />
    <path
       id="path3965"
       d="m 96.828657,940.99124 c 13.026223,0.0347 27.356743,1.232 29.519933,2.93977 2.63122,1.61923 2.62952,25.29969 1.4151,29.34775 -1.21442,4.04805 -49.614623,6.43619 -52.421441,2.22597 -3.238439,-4.85768 -5.260445,-28.33542 -0.20036,-32.18108 2.213769,-1.68247 11.555264,-2.3594 21.686768,-2.33241 z m 3.359313,3.29042 c -9.413842,0.003 -18.75053,0.82033 -21.20151,2.68307 -5.060076,3.84564 -4.656689,20.24162 -1.41824,25.09929 2.806828,4.21023 43.72138,2.62982 44.93579,-1.41824 1.21443,-4.04805 2.42773,-22.2622 -0.2035,-23.88142 -1.98292,-1.56547 -12.09136,-2.48621 -22.11254,-2.4827 z"
       style="fill:#e21b0e;fill-opacity:1;stroke:none"
       inkscape:connector-curvature="0" />
    <path
       style="fill:#aa0000;fill-opacity:1;stroke:none"
       d="m 76.813949,946.04722 c 12.852572,-6.47689 44.123821,-2.22643 46.653851,-0.4048 2.53004,1.82162 2.16448,24.4149 0.91081,26.31237 -3.74445,5.66728 -45.540632,4.65526 -47.159857,2.83363 -1.366225,-0.3289 -7.216916,-14.23777 -1.4437,-27.79876 -1.310878,3.33964 -4.761216,16.4389 2.012959,26.81205 24.346478,4.91075 43.623848,-0.21657 45.173778,-1.54333 1.96427,-1.09125 2.32764,-23.47872 0,-25.60395 -2.32763,-2.12523 -29.449614,-6.57809 -46.147841,-0.60721 z"
       id="path3918"
       inkscape:connector-curvature="0"
       sodipodi:nodetypes="ccccccccc" />
    <path
       sodipodi:nodetypes="ccccccccc"
       inkscape:connector-curvature="0"
       id="path3920"
       d="m 61.59856,946.14435 c -12.852571,-6.47689 -44.123816,-2.22643 -46.65385,-0.4048 -2.530034,1.82162 -2.164481,24.41491 -0.910805,26.31237 3.744448,5.66728 45.540636,4.65526 47.159851,2.83363 1.366225,-0.3289 7.216916,-14.23777 1.44371,-27.79876 1.310869,3.33965 4.761206,16.43891 -2.012969,26.81205 -24.346472,4.91075 -43.623834,-0.21656 -45.173775,-1.54332 -1.964264,-1.09126 -2.327633,-23.47873 0,-25.60395 2.327631,-2.12524 29.449613,-6.5781 46.147838,-0.60722 z"
       style="fill:#aa0000;fill-opacity:1;stroke:none" />
  </g>
</svg>
